<svg width="284" height="59" viewBox="0 0 284 59" fill="none" xmlns="http://www.w3.org/2000/svg">
<path d="M44.2254 39.4719C45.7533 39.5809 47.2256 40.0902 48.4942 40.9488C49.7628 41.8073 50.783 42.9847 51.4522 44.3626C53.8814 48.4228 57.3157 49.319 60.1959 49.5253L61.04 49.5857L63.2825 49.6181L63.9003 49.6623C60.707 55.0487 54.1183 57.4892 44.1337 56.9927L42.4949 56.8753C40.1916 56.6466 38.0736 55.5122 36.6067 53.7218C35.1398 51.9314 34.4442 49.6316 34.673 47.3284C34.9018 45.0251 36.0361 42.9071 37.8265 41.4402C39.6169 39.9733 41.9167 39.2777 44.22 39.5065L44.2254 39.4719Z" fill="white"/>
<path d="M26.8217 38.2252C25.2939 38.1153 23.764 38.4096 22.386 39.0786C21.008 39.7475 19.8304 40.7675 18.9717 42.036C15.9885 45.7086 12.4616 46.1061 9.58136 45.8998L8.73731 45.8393L6.51305 45.5517L5.89524 45.5075C8.28831 51.2939 14.4619 54.6486 24.4154 55.5802L26.0542 55.6976C28.3665 55.7994 30.6246 54.9785 32.3317 53.4154C34.0388 51.8524 35.055 49.6752 35.1569 47.3629C35.2587 45.0505 34.4378 42.7924 32.8747 41.0853C31.3117 39.3783 29.1345 38.362 26.8221 38.2602L26.8217 38.2252Z" fill="white"/>
<path fill-rule="evenodd" clip-rule="evenodd" d="M28.3669 22.3457C28.3669 29.1296 22.8665 34.629 16.0815 34.629C9.29654 34.629 3.7962 29.1296 3.7962 22.3457C3.7962 15.5619 9.29654 10.0625 16.0815 10.0625C20.4158 10.0625 24.2258 12.3066 26.4127 15.6961C26.5448 15.9008 26.671 16.1097 26.791 16.3226C32.7382 13.9341 36.2959 14.0178 42.2499 16.3391C42.3348 16.127 42.4255 15.9178 42.5217 15.7117C42.5272 15.6998 42.5328 15.6879 42.5384 15.676C44.502 11.5048 48.7439 8.61743 53.6602 8.61743C60.4452 8.61743 65.9456 14.1168 65.9456 20.9007C65.9456 27.6845 60.4452 33.1839 53.6602 33.1839C46.8752 33.1839 41.3749 27.6845 41.3749 20.9007C41.3749 19.9306 41.4874 18.9867 41.7 18.0815C35.1535 15.1601 32.4058 16.1078 27.6064 18.0815C28.0982 19.4098 28.3669 20.8464 28.3669 22.3457ZM16.0815 33.1839C22.0683 33.1839 26.9215 28.3315 26.9215 22.3457C26.9215 16.36 22.0683 11.5076 16.0815 11.5076C10.0948 11.5076 5.24154 16.36 5.24154 22.3457C5.24154 28.3315 10.0948 33.1839 16.0815 33.1839ZM53.6602 31.7388C59.647 31.7388 64.5002 26.8864 64.5002 20.9007C64.5002 14.9149 59.647 10.0625 53.6602 10.0625C47.6735 10.0625 42.8202 14.9149 42.8202 20.9007C42.8202 26.8864 47.6735 31.7388 53.6602 31.7388Z" fill="white"/>
<path d="M51.4922 23.0683C53.8869 23.0683 55.8282 21.1273 55.8282 18.733C55.8282 16.3387 53.8869 14.3978 51.4922 14.3978C49.0975 14.3978 47.1562 16.3387 47.1562 18.733C47.1562 21.1273 49.0975 23.0683 51.4922 23.0683Z" fill="white"/>
<path d="M18.2495 23.7769C20.6443 23.7769 22.5855 21.836 22.5855 19.4417C22.5855 17.0474 20.6443 15.1064 18.2495 15.1064C15.8548 15.1064 13.9135 17.0474 13.9135 19.4417C13.9135 21.836 15.8548 23.7769 18.2495 23.7769Z" fill="white"/>
<path fill-rule="evenodd" clip-rule="evenodd" d="M16.0816 35.0831C23.1173 35.0831 28.821 29.3804 28.821 22.3457C28.7817 20.8619 28.6304 19.9735 28.2082 18.3247C30.7903 17.3134 32.1727 16.8926 34.5204 16.6711C36.4565 16.5622 38.1209 17.02 41.177 18.3473C41.009 19.1726 40.9208 20.0265 40.9208 20.9006C40.9208 27.9353 46.6246 33.638 53.6603 33.638C60.696 33.638 66.3997 27.9353 66.3997 20.9006C66.3997 13.8659 60.696 8.16333 53.6603 8.16333C48.5616 8.16333 44.1633 11.1582 42.1276 15.4826L42.1103 15.5196L42.0023 15.7573C39.1878 14.6895 36.8626 14.1229 34.5204 14.1106C32.1631 14.0982 29.8243 14.6472 26.9862 15.7568C26.9237 15.6535 26.8597 15.5512 26.7943 15.4499C24.5273 11.9363 20.5765 9.60842 16.0816 9.60842C9.04587 9.60842 3.34216 15.311 3.34216 22.3457C3.34216 29.3804 9.04587 35.0831 16.0816 35.0831ZM25.9207 14.989C26.0927 15.2186 26.2568 15.4544 26.4127 15.6961C26.5448 15.9008 26.671 16.1097 26.791 16.3226C32.7383 13.9341 36.2959 14.0178 42.25 16.3391C42.3349 16.127 42.4255 15.9178 42.5217 15.7117L42.5385 15.676C44.502 11.5048 48.7439 8.61742 53.6603 8.61742C60.4453 8.61742 65.9456 14.1168 65.9456 20.9006C65.9456 27.6845 60.4453 33.1839 53.6603 33.1839C46.8753 33.1839 41.3749 27.6845 41.3749 20.9006C41.3749 19.9306 41.4874 18.9867 41.7001 18.0815C35.1536 15.1601 32.4059 16.1078 27.6064 18.0815C28.0983 19.4098 28.3669 20.8464 28.3669 22.3457C28.3669 29.1296 22.8666 34.629 16.0816 34.629C9.29659 34.629 3.79626 29.1296 3.79626 22.3457C3.79626 15.5619 9.29659 10.0625 16.0816 10.0625C20.1068 10.0625 23.6799 11.998 25.9207 14.989Z" fill="white"/>
<path fill-rule="evenodd" clip-rule="evenodd" d="M64.5003 20.9006C64.5003 26.8864 59.647 31.7388 53.6603 31.7388C47.6735 31.7388 42.8203 26.8864 42.8203 20.9006C42.8203 14.9149 47.6735 10.0625 53.6603 10.0625C59.647 10.0625 64.5003 14.9149 64.5003 20.9006ZM53.6603 31.2847C59.3963 31.2847 64.0462 26.6355 64.0462 20.9006C64.0462 15.1658 59.3963 10.5166 53.6603 10.5166C47.9242 10.5166 43.2744 15.1658 43.2744 20.9006C43.2744 26.6355 47.9242 31.2847 53.6603 31.2847Z" fill="white"/>
<path fill-rule="evenodd" clip-rule="evenodd" d="M26.9216 22.3457C26.9216 28.3315 22.0684 33.1839 16.0816 33.1839C10.0948 33.1839 5.24159 28.3315 5.24159 22.3457C5.24159 16.36 10.0948 11.5076 16.0816 11.5076C22.0684 11.5076 26.9216 16.36 26.9216 22.3457ZM16.0816 32.7298C21.8176 32.7298 26.4675 28.0806 26.4675 22.3457C26.4675 16.6109 21.8176 11.9617 16.0816 11.9617C10.3455 11.9617 5.69568 16.6109 5.69568 22.3457C5.69568 28.0806 10.3455 32.7298 16.0816 32.7298Z" fill="white"/>
<path fill-rule="evenodd" clip-rule="evenodd" d="M18.2496 24.231C20.895 24.231 23.0397 22.0868 23.0397 19.4417C23.0397 16.7965 20.895 14.6523 18.2496 14.6523C15.6042 14.6523 13.4595 16.7965 13.4595 19.4417C13.4595 22.0868 15.6042 24.231 18.2496 24.231ZM22.5856 19.4417C22.5856 21.836 20.6443 23.7769 18.2496 23.7769C15.8549 23.7769 13.9136 21.836 13.9136 19.4417C13.9136 17.0474 15.8549 15.1064 18.2496 15.1064C20.6443 15.1064 22.5856 17.0474 22.5856 19.4417Z" fill="white"/>
<path fill-rule="evenodd" clip-rule="evenodd" d="M51.4923 23.5224C54.1377 23.5224 56.2824 21.3782 56.2824 18.733C56.2824 16.0879 54.1377 13.9437 51.4923 13.9437C48.8469 13.9437 46.7022 16.0879 46.7022 18.733C46.7022 21.3782 48.8469 23.5224 51.4923 23.5224ZM51.4923 23.0683C53.887 23.0683 55.8283 21.1273 55.8283 18.733C55.8283 16.3387 53.887 14.3978 51.4923 14.3978C49.0976 14.3978 47.1563 16.3387 47.1563 18.733C47.1563 21.1273 49.0976 23.0683 51.4923 23.0683Z" fill="white"/>
<path d="M43.6429 1.38469C43.6429 1.08074 43.8824 0.830727 44.186 0.817601L63.0876 0.000530305C63.2478 -0.00639585 63.4035 0.0547809 63.5162 0.168936L69.749 6.48541C70.187 6.92936 69.6926 7.65241 69.12 7.40523L64.0607 5.22136C63.9603 5.17802 63.8495 5.16461 63.7416 5.18273L44.3046 8.44945C43.9584 8.50764 43.6429 8.24075 43.6429 7.88969V1.38469Z" fill="white"/>
<path d="M26.2738 1.38469C26.2738 1.08074 26.0344 0.830727 25.7307 0.817601L6.82914 0.000530305C6.66892 -0.00639585 6.51324 0.0547809 6.4006 0.168936L0.167782 6.48541C-0.270281 6.92936 0.22415 7.65241 0.796766 7.40523L5.85608 5.22136C5.95648 5.17802 6.06726 5.16461 6.1751 5.18273L25.6121 8.44945C25.9583 8.50764 26.2738 8.24075 26.2738 7.88969V1.38469Z" fill="white"/>
<path d="M275.199 28.4898C274.1 28.4898 272.994 28.8209 271.881 29.4831C271.272 29.8407 270.703 30.0195 270.173 30.0195C269.564 30.0195 269.074 29.7877 268.703 29.3242C268.319 28.8606 268.127 28.3441 268.127 27.7746C268.127 26.8077 268.769 25.9866 270.054 25.3111C271.564 24.5165 273.305 24.1191 275.279 24.1191C278.166 24.1191 280.338 24.735 281.795 25.9667C283.265 27.1852 284 29.0063 284 31.43V41.7011C284 42.3765 283.974 42.86 283.921 43.1513C283.881 43.4427 283.781 43.7341 283.623 44.0255C283.437 44.3831 283.139 44.6744 282.729 44.8996C282.331 45.1115 281.888 45.2174 281.397 45.2174C280.722 45.2174 280.172 45.0188 279.749 44.6215C279.404 44.3036 279.153 43.8467 278.994 43.2507C278.225 44.0056 277.464 44.5354 276.709 44.84C275.967 45.1446 275.02 45.2969 273.868 45.2969C271.564 45.2969 269.802 44.6744 268.584 43.4295C267.445 42.2904 266.875 40.7408 266.875 38.7807C266.875 37.0324 267.484 35.5954 268.703 34.4696C269.921 33.3439 271.696 32.781 274.027 32.781H278.835V31.7479C278.835 30.6221 278.537 29.801 277.941 29.2845C277.345 28.7547 276.431 28.4898 275.199 28.4898ZM278.835 37.4297V36.3172H274.901C272.861 36.3172 271.842 37.1119 271.842 38.7012C271.842 39.4429 272.1 40.019 272.616 40.4296C273.146 40.8402 273.934 41.0455 274.981 41.0455C275.683 41.0455 276.265 40.9792 276.729 40.8468C277.192 40.7144 277.629 40.4495 278.04 40.0521C278.345 39.774 278.55 39.4429 278.656 39.0588C278.775 38.6615 278.835 38.1185 278.835 37.4297Z" fill="white"/>
<path d="M262.628 41.6813C262.628 42.7674 262.515 43.5355 262.29 43.9858C261.88 44.807 261.131 45.2176 260.045 45.2176C258.959 45.2176 258.211 44.807 257.8 43.9858C257.575 43.5355 257.463 42.7674 257.463 41.6813V28.331C257.463 27.2449 257.575 26.4768 257.8 26.0265C258.211 25.2053 258.959 24.7947 260.045 24.7947C261.131 24.7947 261.88 25.2053 262.29 26.0265C262.515 26.4768 262.628 27.2449 262.628 28.331V41.6813ZM257.939 20.6426C257.357 20.0599 257.065 19.3579 257.065 18.5368C257.065 17.7156 257.357 17.0136 257.939 16.4309C258.522 15.8481 259.224 15.5568 260.045 15.5568C260.866 15.5568 261.568 15.8481 262.151 16.4309C262.734 17.0136 263.025 17.7156 263.025 18.5368C263.025 19.3579 262.734 20.0599 262.151 20.6426C261.568 21.2254 260.866 21.5167 260.045 21.5167C259.224 21.5167 258.522 21.2254 257.939 20.6426Z" fill="white"/>
<path d="M246.598 24.1191C248.147 24.1191 249.498 24.4569 250.651 25.1323C252.319 25.98 253.154 26.9534 253.154 28.0527C253.154 28.662 252.909 29.2249 252.419 29.7414C251.995 30.1917 251.465 30.4168 250.829 30.4168C250.286 30.4168 249.69 30.1784 249.041 29.7016C248.207 29.1057 247.379 28.8077 246.558 28.8077C245.34 28.8341 244.366 29.2845 243.638 30.1586C242.869 31.1122 242.485 32.622 242.485 34.6882C242.485 36.7808 242.869 38.3039 243.638 39.2575C244.379 40.1581 245.353 40.6084 246.558 40.6084C247.419 40.6084 248.247 40.317 249.041 39.7343C249.717 39.231 250.313 38.9793 250.829 38.9793C251.452 38.9793 251.982 39.2111 252.419 39.6747C252.909 40.1647 253.154 40.7276 253.154 41.3633C253.154 42.4096 252.319 43.3897 250.651 44.3036C249.432 44.9658 248.068 45.2969 246.558 45.2969C245.671 45.2969 244.816 45.2042 243.995 45.0188C243.187 44.8201 242.366 44.4691 241.532 43.9659C240.697 43.4626 239.976 42.8268 239.366 42.0587C238.77 41.2772 238.28 40.2574 237.896 38.9992C237.512 37.741 237.32 36.304 237.32 34.6882C237.32 33.0723 237.512 31.6353 237.896 30.3771C238.28 29.1189 238.777 28.1057 239.386 27.3375C239.995 26.5694 240.717 25.9402 241.552 25.4502C242.386 24.9469 243.214 24.6026 244.035 24.4171C244.856 24.2185 245.71 24.1191 246.598 24.1191Z" fill="white"/>
<path d="M220.583 26.3045C221.219 25.6025 221.993 25.0661 222.907 24.6953C223.834 24.3112 224.788 24.1191 225.768 24.1191C227.808 24.1191 229.437 24.7284 230.655 25.9469C231.437 26.7283 231.98 27.5958 232.284 28.5494C232.602 29.503 232.761 30.5956 232.761 31.8274V41.6812C232.761 42.7672 232.649 43.5354 232.423 43.9857C232.013 44.8069 231.264 45.2174 230.178 45.2174C229.092 45.2174 228.344 44.8069 227.934 43.9857C227.708 43.5354 227.596 42.7672 227.596 41.6812V32.5426C227.596 31.2579 227.258 30.3175 226.583 29.7215C225.92 29.1123 225.119 28.8077 224.179 28.8077C223.238 28.8077 222.424 29.1123 221.735 29.7215C221.06 30.3175 220.722 31.2579 220.722 32.5426V41.6812C220.722 42.7672 220.609 43.5354 220.384 43.9857C219.974 44.8069 219.225 45.2174 218.139 45.2174C217.053 45.2174 216.305 44.8069 215.894 43.9857C215.669 43.5354 215.557 42.7672 215.557 41.6812V27.715C215.557 27.0395 215.577 26.5561 215.616 26.2647C215.669 25.9734 215.775 25.682 215.934 25.3906C216.12 25.033 216.411 24.7482 216.808 24.5363C217.219 24.3112 217.669 24.1986 218.159 24.1986C218.835 24.1986 219.384 24.3973 219.808 24.7946C220.166 25.1257 220.424 25.629 220.583 26.3045Z" fill="white"/>
<path d="M205.786 32.7808C205.746 31.8802 205.594 31.1319 205.329 30.5359C205.038 29.8869 204.594 29.3704 203.998 28.9863C203.402 28.6022 202.687 28.4102 201.853 28.4102C201.018 28.4102 200.303 28.6022 199.707 28.9863C199.111 29.3704 198.674 29.8869 198.396 30.5359C198.104 31.1716 197.952 31.92 197.939 32.7808H205.786ZM207.892 36.3171H197.939C197.939 37.6945 198.336 38.807 199.131 39.6547C199.926 40.5023 201.051 40.9261 202.508 40.9261C203.899 40.9261 205.091 40.5553 206.084 39.8136C206.813 39.2971 207.455 39.0388 208.011 39.0388C208.528 39.0388 209.005 39.2573 209.442 39.6944C209.879 40.1182 210.097 40.6215 210.097 41.2043C210.097 42.0784 209.422 42.9658 208.071 43.8664C206.654 44.82 204.773 45.2968 202.429 45.2968C201.396 45.2968 200.435 45.2041 199.548 45.0187C198.661 44.82 197.793 44.4756 196.946 43.9856C196.098 43.4823 195.383 42.84 194.8 42.0585C194.217 41.2771 193.747 40.2639 193.389 39.0189C193.032 37.7607 192.853 36.3237 192.853 34.7079C192.853 31.3836 193.668 28.7877 195.297 26.9202C196.939 25.0527 199.124 24.119 201.853 24.119C204.568 24.119 206.72 24.9865 208.309 26.7215C209.912 28.4433 210.759 30.6551 210.852 33.357C210.879 34.4033 210.647 35.1715 210.157 35.6615C209.958 35.8602 209.713 36.0125 209.422 36.1184C209.144 36.2244 208.905 36.284 208.707 36.2972C208.508 36.3105 208.236 36.3171 207.892 36.3171ZM204.396 20.6424L201.972 18.2385L199.548 20.6424C198.992 21.1986 198.508 21.5496 198.098 21.6953C197.409 21.9204 196.767 21.735 196.171 21.139C195.588 20.5563 195.403 19.9139 195.614 19.212C195.76 18.8014 196.111 18.318 196.667 17.7617L199.727 14.7022C199.965 14.4638 200.164 14.2784 200.323 14.146C200.495 14.0003 200.733 13.8612 201.038 13.7288C201.343 13.5831 201.654 13.5103 201.972 13.5103C202.29 13.5103 202.601 13.5831 202.906 13.7288C203.21 13.8612 203.442 14.0003 203.601 14.146C203.773 14.2784 203.978 14.4638 204.217 14.7022L207.276 17.7617C207.832 18.318 208.183 18.8014 208.329 19.212C208.541 19.9139 208.356 20.5563 207.773 21.139C207.177 21.735 206.534 21.9204 205.846 21.6953C205.435 21.5496 204.952 21.1986 204.396 20.6424Z" fill="white"/>
<path d="M188.089 41.6813C188.089 42.7674 187.977 43.5355 187.752 43.9858C187.341 44.807 186.593 45.2176 185.507 45.2176C184.421 45.2176 183.672 44.807 183.262 43.9858C183.037 43.5355 182.924 42.7674 182.924 41.6813V28.331C182.924 27.2449 183.037 26.4768 183.262 26.0265C183.672 25.2053 184.421 24.7947 185.507 24.7947C186.593 24.7947 187.341 25.2053 187.752 26.0265C187.977 26.4768 188.089 27.2449 188.089 28.331V41.6813ZM183.401 20.6426C182.818 20.0599 182.527 19.3579 182.527 18.5368C182.527 17.7156 182.818 17.0136 183.401 16.4309C183.984 15.8481 184.686 15.5568 185.507 15.5568C186.328 15.5568 187.03 15.8481 187.613 16.4309C188.195 17.0136 188.487 17.7156 188.487 18.5368C188.487 19.3579 188.195 20.0599 187.613 20.6426C187.03 21.2254 186.328 21.5167 185.507 21.5167C184.686 21.5167 183.984 21.2254 183.401 20.6426Z" fill="white"/>
<path d="M168.175 40.3698C170.082 40.3698 171.473 39.3963 172.347 37.4494C172.784 36.5223 173.241 35.8667 173.718 35.4826C174.128 35.1648 174.658 35.0058 175.307 35.0058C176.088 35.0058 176.731 35.2575 177.234 35.7608C177.724 36.2508 177.969 36.9528 177.969 37.8666C177.969 38.5421 177.77 39.3235 177.373 40.2109C176.989 41.0982 176.38 41.9459 175.545 42.7538C174.645 43.6279 173.625 44.2703 172.486 44.6809C171.347 45.0914 169.95 45.2967 168.294 45.2967C165.235 45.2967 162.725 44.3034 160.765 42.3167C160.208 41.7605 159.745 41.1645 159.374 40.5287C159.016 39.893 158.732 39.2838 158.52 38.701C158.321 38.105 158.169 37.3435 158.063 36.4164C157.97 35.4893 157.91 34.6681 157.884 33.9529C157.871 33.2245 157.864 32.2113 157.864 30.9133C157.864 29.6154 157.871 28.6088 157.884 27.8936C157.91 27.1652 157.97 26.3374 158.063 25.4103C158.169 24.4832 158.321 23.7282 158.52 23.1455C158.732 22.5495 159.016 21.9336 159.374 21.2979C159.745 20.6622 160.208 20.0662 160.765 19.5099C162.725 17.5232 165.235 16.5299 168.294 16.5299C169.95 16.5299 171.347 16.7352 172.486 17.1458C173.625 17.5563 174.645 18.1987 175.545 19.0728C176.38 19.8807 176.989 20.7284 177.373 21.6158C177.77 22.5031 177.969 23.2845 177.969 23.96C177.969 24.8739 177.724 25.5758 177.234 26.0659C176.731 26.5692 176.088 26.8208 175.307 26.8208C174.658 26.8208 174.128 26.6619 173.718 26.344C173.241 25.9599 172.784 25.3043 172.347 24.3772C171.473 22.4303 170.082 21.4568 168.175 21.4568C166.837 21.4568 165.718 21.9601 164.817 22.9667C164.235 23.6289 163.857 24.4765 163.685 25.5096C163.513 26.5427 163.427 28.3439 163.427 30.9133C163.427 33.4827 163.513 35.284 163.685 36.317C163.857 37.3501 164.235 38.1977 164.817 38.8599C165.718 39.8665 166.837 40.3698 168.175 40.3698Z" fill="white"/>
<path d="M143.1 39.2774C143.789 39.9528 144.133 40.7674 144.133 41.7209C144.133 42.6745 143.789 43.4891 143.1 44.1645C142.411 44.84 141.59 45.1777 140.637 45.1777C139.683 45.1777 138.868 44.84 138.193 44.1645C137.518 43.4891 137.18 42.6745 137.18 41.7209C137.18 40.7674 137.518 39.9528 138.193 39.2774C138.868 38.6019 139.683 38.2642 140.637 38.2642C141.59 38.2642 142.411 38.6019 143.1 39.2774Z" fill="white"/>
<path d="M117.838 33.7941V41.4825C117.838 42.1579 117.811 42.648 117.758 42.9526C117.719 43.2572 117.619 43.5751 117.46 43.9062C117.248 44.3035 116.924 44.6214 116.487 44.8598C116.063 45.0982 115.586 45.2174 115.056 45.2174C114.527 45.2174 114.043 45.0982 113.606 44.8598C113.182 44.6214 112.865 44.3035 112.653 43.9062C112.494 43.5751 112.388 43.2572 112.335 42.9526C112.295 42.648 112.275 42.1579 112.275 41.4825V20.1458C112.275 19.7749 112.282 19.4769 112.295 19.2518C112.322 19.0266 112.394 18.7485 112.514 18.4174C112.633 18.073 112.812 17.7816 113.05 17.5432C113.288 17.3048 113.573 17.126 113.904 17.0068C114.249 16.8876 114.533 16.8214 114.758 16.8082C114.984 16.7817 115.282 16.7684 115.652 16.7684H123.381C124.784 16.7684 126.069 17.0002 127.235 17.4638C128.413 17.9141 129.387 18.5366 130.155 19.3312C130.923 20.1126 131.519 21.0265 131.943 22.0728C132.367 23.1191 132.579 24.2316 132.579 25.4104C132.579 27.1057 132.128 28.6155 131.228 29.94C130.327 31.2512 129.069 32.2313 127.453 32.8802L131.685 40.2507C132.254 41.2441 132.552 41.9857 132.579 42.4758C132.605 42.9261 132.493 43.3632 132.241 43.787C132.003 44.1976 131.658 44.5287 131.208 44.7803C130.705 45.0717 130.215 45.2174 129.738 45.2174C129.274 45.2174 128.857 45.1048 128.486 44.8796C128.129 44.6412 127.857 44.3962 127.672 44.1446C127.5 43.8929 127.261 43.4956 126.957 42.9526L121.712 33.7941H117.838ZM117.838 29.1453H123.083C124.288 29.1453 125.248 28.8076 125.963 28.1321C126.692 27.4434 127.056 26.5428 127.056 25.4303C127.056 24.3177 126.692 23.4171 125.963 22.7284C125.248 22.0397 124.288 21.6953 123.083 21.6953H117.838V29.1453Z" fill="white"/>
<path d="M98.2782 33.5158L94.9009 33.0192C92.5036 32.6616 90.6759 31.8735 89.4177 30.6551C88.0668 29.3439 87.3913 27.4963 87.3913 25.1123C87.3913 22.5561 88.2787 20.49 90.0534 18.9139C91.8282 17.3246 94.2254 16.5299 97.2451 16.5299C99.5364 16.5299 101.669 16.9868 103.642 17.9007C105.152 18.6027 105.907 19.5231 105.907 20.6622C105.907 21.2714 105.695 21.8409 105.271 22.3707C104.834 22.874 104.285 23.1256 103.622 23.1256C103.066 23.1256 102.377 22.9137 101.556 22.4899C100.152 21.7482 98.6623 21.3774 97.0862 21.3774C95.6955 21.3774 94.6228 21.7085 93.8678 22.3707C93.1129 23.0197 92.7354 23.8276 92.7354 24.7944C92.7354 25.7348 93.0069 26.4566 93.55 26.9599C94.1724 27.5161 95.0466 27.8803 96.1723 28.0525L99.4901 28.5293C101.94 28.8869 103.748 29.622 104.914 30.7345C106.371 32.0987 107.099 34.092 107.099 36.7144C107.099 38.4891 106.629 40.0321 105.688 41.3433C104.761 42.6545 103.51 43.6412 101.934 44.3034C100.371 44.9656 98.5894 45.2967 96.5895 45.2967C95.0797 45.2967 93.8082 45.1908 92.7752 44.9789C91.7421 44.7537 90.6693 44.3762 89.5568 43.8465C88.5767 43.3829 87.8615 42.9194 87.4112 42.4558C86.9609 41.979 86.7357 41.3631 86.7357 40.6082C86.7357 39.9063 86.9874 39.3036 87.4906 38.8004C87.9012 38.3898 88.4178 38.1845 89.0402 38.1845C89.5833 38.1845 90.3316 38.4361 91.2852 38.9394C92.3182 39.4824 93.2122 39.8665 93.9672 40.0917C94.7353 40.3036 95.6293 40.4095 96.6491 40.4095C98.265 40.4095 99.5033 40.0983 100.364 39.4758C101.238 38.8533 101.675 37.9792 101.675 36.8534C101.675 35.8336 101.391 35.0456 100.821 34.4893C100.331 34.0257 99.4834 33.7013 98.2782 33.5158Z" fill="white"/>
</svg>
