<svg width="21" height="25" viewBox="0 0 21 25" fill="none" xmlns="http://www.w3.org/2000/svg">
<path d="M16.9001 0.37666C17.3334 0.37666 17.7626 0.462017 18.1629 0.627858C18.5633 0.793698 18.9271 1.03677 19.2335 1.34321C19.54 1.64964 19.783 2.01343 19.9489 2.4138C20.1147 2.81418 20.2001 3.2433 20.2001 3.67666V21.0767C20.2001 21.51 20.1147 21.9391 19.9489 22.3395C19.783 22.7399 19.54 23.1037 19.2335 23.4101C18.9271 23.7165 18.5633 23.9596 18.1629 24.1255C17.7626 24.2913 17.3334 24.3767 16.9001 24.3767H4.30007C3.86661 24.3767 3.43739 24.2913 3.03694 24.1253C2.63649 23.9594 2.27265 23.7162 1.9662 23.4097C1.65975 23.1031 1.4167 22.7392 1.25093 22.3387C1.08516 21.9382 0.999916 21.5089 1.00007 21.0755V3.67666C1.00007 2.16466 2.01527 0.89266 3.40007 0.50026V2.47666C3.03527 2.75026 2.80007 3.18466 2.80007 3.67666V21.0743C2.80007 21.9023 3.47207 22.5743 4.30007 22.5743H16.9001C17.7281 22.5743 18.4001 21.9023 18.4001 21.0743V3.67666C18.4001 2.84866 17.7281 2.17666 16.9001 2.17666H14.2001V0.37666H16.9001ZM13.0001 0.37666V10.1435C13.0001 11.0399 12.0401 11.3759 11.4521 11.0603L11.3537 10.9979L8.80247 9.45586L6.30887 10.9571C5.70887 11.3891 4.71287 11.1251 4.60847 10.2875L4.60007 10.1447V0.37666H13.0001ZM11.2001 2.17666H6.40007V8.80426L8.28767 7.66546C8.43806 7.58551 8.60486 7.54132 8.77511 7.53633C8.94535 7.53133 9.11446 7.56567 9.26927 7.63666L11.2013 8.80546L11.2001 2.17666Z" fill="#2B2433"/>
<path fill-rule="evenodd" clip-rule="evenodd" d="M3.40007 2.47666C3.03527 2.75026 2.80007 3.18466 2.80007 3.67666V21.0743C2.80007 21.9023 3.47207 22.5743 4.30007 22.5743H16.9001C17.7281 22.5743 18.4001 21.9023 18.4001 21.0743V3.67666C18.4001 2.84866 17.7281 2.17666 16.9001 2.17666H14.2001V0.37666H16.9001C17.3334 0.37666 17.7626 0.462017 18.1629 0.627858C18.5633 0.793698 18.9271 1.03677 19.2335 1.34321C19.54 1.64964 19.783 2.01343 19.9489 2.4138C20.1147 2.81418 20.2001 3.2433 20.2001 3.67666V21.0767C20.2001 21.51 20.1147 21.9391 19.9489 22.3395C19.783 22.7399 19.54 23.1037 19.2335 23.4101C18.9271 23.7165 18.5633 23.9596 18.1629 24.1255C17.7626 24.2913 17.3334 24.3767 16.9001 24.3767H4.30007C3.86661 24.3767 3.43739 24.2913 3.03694 24.1253C2.63649 23.9594 2.27265 23.7162 1.9662 23.4097C1.65975 23.1031 1.4167 22.7392 1.25093 22.3387C1.08516 21.9382 0.999916 21.5089 1.00007 21.0755V3.67666C1.00007 2.27613 1.8711 1.08152 3.10007 0.601137C3.19789 0.562901 3.29798 0.52919 3.40007 0.50026V2.47666ZM0.700073 21.0754C0.699913 21.5483 0.792902 22.0165 0.973731 22.4534C1.15457 22.8903 1.41972 23.2874 1.75403 23.6218C2.08833 23.9562 2.48525 24.2215 2.92211 24.4025C3.35897 24.5835 3.8272 24.6767 4.30007 24.6767H16.9001C17.3728 24.6767 17.841 24.5835 18.2777 24.4026C18.7145 24.2217 19.1114 23.9565 19.4457 23.6222C19.7799 23.288 20.0451 22.8911 20.226 22.4543C20.407 22.0175 20.5001 21.5494 20.5001 21.0767V3.67666C20.5001 3.2039 20.407 2.73577 20.226 2.299C20.0451 1.86223 19.7799 1.46537 19.4457 1.13108C19.1114 0.796785 18.7145 0.531611 18.2777 0.350694C17.841 0.169777 17.3728 0.0766602 16.9001 0.0766602H13.9001V2.47666H16.9001C17.5624 2.47666 18.1001 3.01435 18.1001 3.67666V21.0743C18.1001 21.7366 17.5624 22.2743 16.9001 22.2743H4.30007C3.63776 22.2743 3.10007 21.7366 3.10007 21.0743V3.67666C3.10007 3.28298 3.28765 2.93598 3.58007 2.71666L3.70007 2.62666V0.10344L3.31828 0.211624C1.80798 0.639588 0.700073 2.02677 0.700073 3.67666V21.0754C0.700073 21.0755 0.700073 21.0754 0.700073 21.0754ZM13.3001 0.0766602V10.1435C13.3001 10.7157 12.9862 11.1222 12.5806 11.3247C12.1887 11.5205 11.6983 11.5329 11.3102 11.3246L11.3006 11.3194L11.1957 11.2529L8.80216 9.80622L6.47349 11.2081C6.08914 11.4792 5.59214 11.5264 5.17467 11.3818C4.74434 11.2329 4.37895 10.8715 4.31078 10.3246L4.30957 10.3148L4.30007 10.1535V0.0766602H13.3001ZM6.30887 10.9571L8.80247 9.45586L11.3537 10.9979L11.4521 11.0603C12.0401 11.3759 13.0001 11.0399 13.0001 10.1435V0.37666H4.60007V10.1447L4.60847 10.2875C4.71287 11.1251 5.70887 11.3891 6.30887 10.9571ZM8.13967 7.40439L8.14685 7.40057C8.33797 7.29896 8.54995 7.2428 8.76631 7.23646C8.98267 7.23011 9.19757 7.27374 9.39432 7.36397L9.4099 7.37111L10.9012 8.27328L10.9001 2.47666H6.70007V8.2729L8.13967 7.40439ZM6.40007 8.80426V2.17666H11.2001L11.2013 8.80546L9.26927 7.63666C9.11446 7.56567 8.94535 7.53133 8.77511 7.53633C8.60486 7.54132 8.43806 7.58551 8.28767 7.66546L6.40007 8.80426Z" fill="#2B2433"/>
</svg>
