<svg width="645" height="528" viewBox="0 0 645 528" fill="none" xmlns="http://www.w3.org/2000/svg">
<path d="M636.586 527.073H7.68514C3.45832 527.073 0 523.614 0 519.388V489.287C0 485.061 3.45832 481.602 7.68514 481.602H636.586C640.813 481.602 644.271 485.061 644.271 489.287V519.388C644.271 523.614 640.813 527.073 636.586 527.073Z" fill="#2B2433"/>
<path d="M327.259 492.49C445.395 492.49 541.162 396.722 541.162 278.586C541.162 160.451 445.395 64.6833 327.259 64.6833C209.124 64.6833 113.356 160.451 113.356 278.586C113.356 396.722 209.124 492.49 327.259 492.49Z" fill="#BB88FF" fill-opacity="0.69"/>
<path d="M592.397 429.664C596.944 418.072 601.555 405.199 597.264 393.543C596.239 390.726 594.638 387.716 595.599 384.834C596.88 380.927 602.003 379.582 603.668 375.868C605.589 371.769 602.579 367.03 603.348 362.611C604.116 358.128 608.535 355.182 612.826 353.581C617.117 351.98 621.792 350.955 625.251 348.009C631.847 342.245 631.078 331.934 629.606 323.224C628.133 314.579 627.044 304.332 633.384 298.248C621.728 300.489 609.816 302.795 599.698 308.943C589.579 315.091 581.509 325.978 582.086 337.826C582.406 343.782 584.711 350.122 582.022 355.374C579.076 361.074 571.198 363.315 569.213 369.399C566.908 376.38 573.76 382.784 576.45 389.637C579.012 396.105 577.795 403.342 578.371 410.195C578.948 417.111 582.534 424.924 589.387 425.949L592.397 429.664Z" fill="#8943E6"/>
<path opacity="0.31" d="M592.397 429.664C596.944 418.072 601.555 405.199 597.264 393.543C596.239 390.726 594.638 387.716 595.599 384.834C596.88 380.927 602.003 379.582 603.668 375.868C605.589 371.769 602.579 367.03 603.348 362.611C604.116 358.128 608.535 355.182 612.826 353.581C617.117 351.98 621.792 350.955 625.251 348.009C631.847 342.245 631.078 331.934 629.606 323.224C628.133 314.579 627.044 304.332 633.384 298.248C621.728 300.489 609.816 302.795 599.698 308.943C589.579 315.091 581.509 325.978 582.086 337.826C582.406 343.782 584.711 350.122 582.022 355.374C579.076 361.074 571.198 363.315 569.213 369.399C566.908 376.38 573.76 382.784 576.45 389.637C579.012 396.105 577.795 403.342 578.371 410.195C578.948 417.111 582.534 424.924 589.387 425.949L592.397 429.664Z" fill="white"/>
<path d="M587.721 414.485C587.593 380.799 594.126 310.288 633 298.504" stroke="white" stroke-width="0.75" stroke-miterlimit="10" stroke-linecap="round"/>
<path d="M565.306 426.846C558.39 413.909 551.217 399.499 554.611 385.218C555.444 381.76 556.853 378.045 555.38 374.779C553.394 370.424 547.182 369.463 544.685 365.365C541.931 360.882 544.749 354.862 543.212 349.802C541.675 344.615 536.103 341.861 530.915 340.516C525.728 339.235 520.092 338.723 515.609 335.649C507.091 329.821 506.579 317.589 507.091 307.278C507.604 296.967 507.476 284.799 499.214 278.586C513.176 279.611 527.457 280.7 540.138 286.528C552.818 292.356 563.833 304.012 564.73 317.973C565.178 324.954 563.321 332.703 567.228 338.531C571.455 344.807 580.997 346.344 584.199 353.196C587.85 361.074 580.741 369.463 578.499 377.853C576.45 385.73 578.819 394.056 579.076 402.189C579.332 410.323 576.194 419.993 568.316 422.171L565.306 426.846Z" fill="#8943E6"/>
<path d="M568.701 408.401C564.218 368.887 546.926 287.232 499.727 278.843" stroke="white" stroke-width="0.75" stroke-miterlimit="10" stroke-linecap="round"/>
<path d="M609.048 502.736H548.207C543.98 502.736 540.522 499.278 540.522 495.051L535.398 407.313C535.398 403.086 538.857 399.627 543.084 399.627H614.171C618.398 399.627 621.856 403.086 621.856 407.313L616.733 495.051C616.733 499.278 613.275 502.736 609.048 502.736Z" fill="#D8C0F8"/>
<path d="M57.3475 224.088L96.6053 218.136L123.296 394.163L84.0382 400.116L57.3475 224.088Z" fill="#8943E6"/>
<path d="M76.9628 221.129L96.5917 218.153L123.282 394.18L103.654 397.156L76.9628 221.129Z" fill="#8943E6"/>
<path d="M96.6407 218.322L57.3824 224.278L66.6046 200.646L71.8561 187.325L80.8221 198.533L96.6407 218.322Z" fill="#C092FF"/>
<path d="M80.8221 198.533L66.6046 200.646L71.8561 187.325L80.8221 198.533Z" fill="#48444C"/>
<path d="M128.16 177.835L167.707 181.376L151.828 358.703L112.28 355.162L128.16 177.835Z" fill="#8943E6"/>
<path d="M147.971 179.62L167.745 181.391L151.866 358.718L132.092 356.947L147.971 179.62Z" fill="#8943E6"/>
<path d="M167.728 181.562L128.15 178.039L142.752 157.289L151.013 145.569L157.033 158.57L167.728 181.562Z" fill="#C092FF"/>
<path d="M157.033 158.57L142.752 157.289L151.013 145.569L157.033 158.57Z" fill="#48444C"/>
<path d="M193.73 503.377H37.7212L17.2916 261.935H206.218L193.73 503.377Z" fill="#D8C0F8"/>
<path opacity="0.5" d="M111.755 503.377H193.73L206.218 261.935H111.755V503.377Z" fill="#D8C0F8"/>
<path d="M146.018 435.235H542.443V489.736H146.018V435.235Z" fill="#C092FF"/>
<path d="M147.683 435.235V489.736H563.577V493.835C563.577 498.894 559.158 502.993 553.715 502.993H149.476C136.603 502.993 126.164 493.386 126.164 481.474V445.034C126.164 433.122 136.603 423.515 149.476 423.515H553.715C559.158 423.515 563.577 427.614 563.577 432.674V435.299H147.683V435.235Z" fill="#8943E6"/>
<path d="M146.018 459.508H542.443V489.672H146.018V459.508Z" fill="#C092FF"/>
<path d="M197.252 368.887H519.388V416.279H197.252V368.887Z" fill="#D8C0F8"/>
<path d="M197.252 368.887V416.279H531.556V419.865C531.556 424.284 527.969 427.806 523.614 427.806H198.661C188.35 427.806 179.96 419.417 179.96 409.106V377.405C179.96 367.094 188.35 358.704 198.661 358.704H523.614C527.969 358.704 531.556 362.291 531.556 366.645V368.951H197.252V368.887Z" fill="#8930FF"/>
<path d="M336.481 207.563C332.062 201.735 331.678 193.73 335.841 187.646C339.171 182.778 341.413 176.758 341.156 172.339C340.644 164.398 335.713 157.097 328.988 152.742C320.15 146.978 308.366 146.146 298.824 150.629C289.282 155.112 282.365 164.718 281.148 175.157C280.252 182.65 281.981 190.848 278.138 197.38C275.32 202.055 270.133 204.809 265.009 206.666C259.822 208.46 254.378 209.676 249.639 212.43C244.9 215.184 240.865 219.923 240.929 225.431C240.993 229.594 243.363 233.436 243.619 237.535C244.003 243.555 239.777 248.871 235.294 252.841C230.746 256.812 225.559 260.27 222.485 265.458C217.426 274.039 219.795 285.631 226.199 293.316C232.604 301.002 242.21 305.292 251.817 307.79C278.074 314.707 305.741 310.224 332.831 309.775C341.22 309.647 349.802 309.903 357.936 307.79C366.069 305.677 374.01 300.809 377.405 293.124C380.863 285.439 379.134 276.089 374.523 269.108C369.912 262.127 362.675 257.068 355.054 253.482C349.546 250.856 343.654 248.807 339.171 244.708C334.688 240.609 332.062 233.628 335.072 228.313C336.225 226.263 338.146 224.662 339.235 222.613C341.413 218.642 340.516 213.583 338.082 209.74C337.634 209.1 337.122 208.396 336.481 207.563Z" fill="#48444C"/>
<path d="M197.252 390.021H519.388V416.279H197.252V390.021Z" fill="#D8C0F8"/>
<path d="M342.629 322.776L382.336 350.955L431.008 451.502H422.043L367.606 362.483C367.606 362.483 349.034 363.123 342.629 357.359C336.225 351.595 299.4 326.619 299.4 326.619L342.629 322.776Z" fill="#2B2433"/>
<path d="M272.374 314.707C265.138 334.304 270.261 361.842 294.597 363.123C318.934 364.404 326.619 363.123 326.619 363.123L374.01 459.187H384.898L347.753 351.595L302.603 326.619L272.374 314.707Z" fill="#48444C"/>
<path d="M309.327 203.016C315.731 211.341 331.102 234.397 336.866 260.014C342.629 285.631 358.64 322.776 358.64 322.776H340.068L322.136 261.935L305.484 204.937L309.327 203.016Z" fill="#695880"/>
<path d="M329.052 169.009C330.013 184.7 323.16 195.459 313.362 195.971C303.563 196.484 297.159 182.266 300.105 169.009C306.957 157.225 316.308 156.265 316.308 156.265H322.2L329.052 169.009Z" fill="#FFE3CA"/>
<path d="M322.52 159.659C320.727 165.167 316.756 169.906 311.633 172.596C306.509 175.285 300.361 175.926 294.789 174.261L308.751 154.343H320.727L332.19 163.437L330.461 173.876C325.978 170.482 322.52 159.659 322.52 159.659Z" fill="#48444C"/>
<path d="M310.416 194.114C308.366 202.055 309.007 210.381 309.007 211.662C307.086 214.223 298.12 213.583 296.839 204.617C298.76 193.089 302.603 180.281 302.603 180.281L305.805 187.325L310.416 194.114Z" fill="#FFE3CA"/>
<path d="M298.12 197.828C290.114 200.454 263.216 212.622 261.935 215.184C263.857 222.229 273.463 326.619 273.463 326.619H317.012C317.012 326.619 311.248 268.98 314.45 265.138C317.653 261.295 327.899 247.846 326.619 245.925C325.338 244.003 309.071 202.696 309.071 202.696L298.12 197.828Z" fill="#7F57B3"/>
<path d="M261.935 215.184C255.659 219.987 229.273 263.216 237.599 286.272C245.925 309.327 273.143 322.904 273.143 322.904V310.224C273.143 310.224 251.048 292.676 252.329 279.867C253.61 267.059 268.98 240.801 268.98 240.801L261.935 215.184Z" fill="#695880"/>
<path d="M365.108 333.984H270.837C267.891 333.984 265.458 331.55 265.458 328.604L262.896 268.276C262.896 265.33 265.33 262.896 268.276 262.896H366.389C369.335 262.896 371.769 265.33 371.769 268.276L370.488 328.604C370.488 331.55 368.054 333.984 365.108 333.984Z" fill="#8943E6"/>
<path d="M383.361 459.187C389.701 460.596 398.283 467.577 402.381 471.163C403.214 471.868 402.702 473.277 401.549 473.277C394.952 473.149 380.03 472.444 376.572 469.498C372.089 465.656 373.37 459.251 373.37 459.251H383.361V459.187ZM430.88 451.246C436.516 452.783 443.945 459.315 447.66 462.838C448.492 463.606 447.852 464.951 446.763 464.887C440.551 464.439 427.23 463.222 424.22 460.34C420.249 456.626 421.722 450.798 421.722 450.798L430.88 451.246Z" fill="#695880"/>
<path d="M317.653 308.046C322.958 308.046 327.259 303.745 327.259 298.44C327.259 293.134 322.958 288.833 317.653 288.833C312.347 288.833 308.046 293.134 308.046 298.44C308.046 303.745 312.347 308.046 317.653 308.046Z" fill="white"/>
<path d="M233.116 434.851L220.948 427.806L208.78 434.851V390.021H233.116V434.851ZM421.786 169.393C421.786 170.61 421.338 171.699 420.57 172.596C421.338 173.428 421.786 174.581 421.786 175.798V179.768C421.786 180.601 421.53 181.433 421.146 182.138C421.53 182.842 421.786 183.675 421.786 184.507V188.478C421.786 191.104 419.673 193.217 417.047 193.217H375.804C373.178 193.217 371.064 191.104 371.064 188.478V184.443C371.064 183.611 371.321 182.778 371.705 182.074C371.321 181.369 371.064 180.537 371.064 179.704V175.734C371.064 174.517 371.513 173.428 372.281 172.531C371.513 171.699 371.064 170.546 371.064 169.329V165.359C371.064 162.733 373.178 160.62 375.804 160.62H417.047C419.673 160.62 421.786 162.733 421.786 165.359V169.393ZM454.704 79.6053C454.704 102.725 441.255 122.642 421.786 132.12V153.639C421.786 155.24 420.441 156.585 418.84 156.585H374.01C372.409 156.585 371.064 155.24 371.064 153.639V132.12C351.595 122.706 338.146 102.725 338.146 79.6053C338.146 47.3917 364.212 21.3263 396.425 21.3263C428.639 21.3263 454.704 47.4558 454.704 79.6053Z" fill="#8943E6"/>
<path opacity="0.23" d="M416.279 172.916H377.212M416.279 181.882H377.212" stroke="#48444C" stroke-width="2" stroke-miterlimit="10" stroke-linecap="round"/>
<path d="M406.416 86.7781C405.712 86.1377 404.687 85.8175 403.598 85.9456C402.253 86.0736 400.972 86.8421 400.14 87.9309C399.435 88.8915 399.051 90.0443 398.859 91.133C398.283 90.8128 397.642 90.4926 397.066 90.1083L396.874 89.9802H396.041L395.849 90.1083C395.209 90.4926 394.632 90.8128 394.056 91.133C393.864 90.0443 393.479 88.8915 392.775 87.9309C392.006 86.8421 390.662 86.0736 389.317 85.9456C388.228 85.8175 387.267 86.1377 386.499 86.7781C385.538 87.6747 385.218 88.9556 385.538 90.3005C386.05 92.0937 387.523 93.5667 389.253 93.8869C390.341 94.079 391.366 94.0149 392.455 93.7588C394.056 114.573 394.696 135.643 394.248 156.457H396.169C396.617 135.579 395.977 114.445 394.376 93.6307C394.376 93.4386 394.376 93.2464 394.312 93.0543C395.08 92.7341 395.785 92.3498 396.489 91.9015C397.194 92.2858 397.898 92.7341 398.667 93.0543C398.667 93.2464 398.667 93.4386 398.603 93.6307C397.002 114.445 396.361 135.579 396.81 156.457H398.731C398.283 135.643 398.923 114.509 400.524 93.7588C401.549 94.0149 402.638 94.143 403.726 93.8869C405.391 93.5667 406.928 92.0937 407.441 90.3005C407.697 88.9556 407.377 87.6747 406.416 86.7781ZM389.573 92.0937C388.612 91.9015 387.651 90.9409 387.331 89.8522C387.203 89.4039 387.139 88.6994 387.716 88.2511C388.036 87.9309 388.484 87.8668 388.804 87.8668H389.06C389.829 87.9309 390.662 88.3792 391.174 89.0837C391.75 89.8522 392.07 90.8128 392.199 91.9015C391.302 92.1577 390.469 92.2217 389.573 92.0937ZM405.519 89.8522C405.199 90.9409 404.303 91.9015 403.278 92.0937C402.445 92.2858 401.549 92.1577 400.716 91.9015C400.908 90.8128 401.165 89.8522 401.741 89.0837C402.189 88.4432 403.022 87.9949 403.854 87.8668C404.239 87.8028 404.751 87.8668 405.199 88.2511C405.648 88.6994 405.584 89.4039 405.519 89.8522Z" fill="white"/>
<path d="M381.055 32.0214C366.966 37.1449 343.91 55.7173 345.832 85.8174" stroke="white" stroke-width="4" stroke-miterlimit="10" stroke-linecap="round"/>
<path d="M303.883 136.411C312.903 136.411 320.214 129.1 320.214 120.08C320.214 111.061 312.903 103.749 303.883 103.749C294.864 103.749 287.552 111.061 287.552 120.08C287.552 129.1 294.864 136.411 303.883 136.411Z" fill="#8943E6"/>
<path d="M478.72 73.6493C482.788 73.6493 486.085 70.3519 486.085 66.2844C486.085 62.2168 482.788 58.9194 478.72 58.9194C474.653 58.9194 471.356 62.2168 471.356 66.2844C471.356 70.3519 474.653 73.6493 478.72 73.6493Z" fill="#8943E6"/>
<path d="M454.704 194.05C461.425 194.05 466.873 188.602 466.873 181.882C466.873 175.161 461.425 169.714 454.704 169.714C447.984 169.714 442.536 175.161 442.536 181.882C442.536 188.602 447.984 194.05 454.704 194.05Z" fill="#8943E6"/>
<path d="M338.146 24.3363C344.867 24.3363 350.315 18.8884 350.315 12.1681C350.315 5.44786 344.867 0 338.146 0C331.426 0 325.978 5.44786 325.978 12.1681C325.978 18.8884 331.426 24.3363 338.146 24.3363Z" fill="#8943E6"/>
<path opacity="0.14" d="M233.116 434.851L220.948 427.806L208.78 434.851V390.021H233.116V434.851Z" fill="#0C0C0C"/>
</svg>
