<svg width="24" height="25" viewBox="0 0 24 25" fill="none" xmlns="http://www.w3.org/2000/svg">
<path d="M22.2857 14.091H13.7143V22.6624C13.7143 23.1171 13.5337 23.5531 13.2122 23.8746C12.8907 24.1961 12.4547 24.3767 12 24.3767C11.5453 24.3767 11.1093 24.1961 10.7878 23.8746C10.4663 23.5531 10.2857 23.1171 10.2857 22.6624V14.091H1.71429C1.25963 14.091 0.823594 13.9104 0.502103 13.5889C0.180612 13.2674 0 12.8314 0 12.3767C0 11.9221 0.180612 11.486 0.502103 11.1645C0.823594 10.843 1.25963 10.6624 1.71429 10.6624H10.2857V2.09099C10.2857 1.63634 10.4663 1.2003 10.7878 0.878811C11.1093 0.55732 11.5453 0.376709 12 0.376709C12.4547 0.376709 12.8907 0.55732 13.2122 0.878811C13.5337 1.2003 13.7143 1.63634 13.7143 2.09099V10.6624H22.2857C22.7404 10.6624 23.1764 10.843 23.4979 11.1645C23.8194 11.486 24 11.9221 24 12.3767C24 12.8314 23.8194 13.2674 23.4979 13.5889C23.1764 13.9104 22.7404 14.091 22.2857 14.091Z" fill="#2B2433"/>
</svg>
