<svg width="25" height="27" viewBox="0 0 25 27" fill="none" xmlns="http://www.w3.org/2000/svg">
<path fill-rule="evenodd" clip-rule="evenodd" d="M12.6665 2.47046C12.2723 2.47046 11.8904 2.60804 11.5868 2.85948L11.5833 2.86234L3.76108 9.28599C3.34543 9.62771 3.09375 10.1555 3.09375 10.7209V22.4568C3.09375 23.4932 3.90422 24.283 4.84396 24.283H20.489C21.4288 24.283 22.2393 23.4932 22.2393 22.4568V10.7209C22.2393 10.1555 21.9879 9.62826 21.5714 9.28666L13.7462 2.85948C13.4426 2.60805 13.0607 2.47046 12.6665 2.47046ZM10.1935 1.17309C10.8892 0.597755 11.7637 0.282959 12.6665 0.282959C13.5693 0.282959 14.4439 0.597771 15.1396 1.17314L15.1414 1.17466L22.9586 7.59527C23.8911 8.36033 24.4268 9.51328 24.4268 10.7209V22.4568C24.4268 24.6469 22.6906 26.4705 20.489 26.4705H4.84396C2.64241 26.4705 0.90625 24.6469 0.90625 22.4568V10.7209C0.90625 9.51317 1.4414 8.36088 2.37223 7.59595L10.1916 1.17466L10.1935 1.17309Z" fill="#2B2433"/>
<path fill-rule="evenodd" clip-rule="evenodd" d="M11.9998 16.4706C11.5826 16.4706 11.1826 16.6363 10.8876 16.9313C10.5926 17.2263 10.4269 17.6263 10.4269 18.0435V25.3767C10.4269 25.9808 9.93721 26.4705 9.33315 26.4705C8.72908 26.4705 8.2394 25.9808 8.2394 25.3767V18.0435C8.2394 17.0462 8.63558 16.0897 9.34079 15.3845C10.046 14.6793 11.0025 14.2831 11.9998 14.2831H13.3331C14.3304 14.2831 15.2869 14.6793 15.9921 15.3845C16.6973 16.0897 17.0935 17.0462 17.0935 18.0435V25.3767C17.0935 25.9808 16.6038 26.4705 15.9997 26.4705C15.3956 26.4705 14.906 25.9808 14.906 25.3767V18.0435C14.906 17.6263 14.7402 17.2263 14.4453 16.9313C14.1503 16.6363 13.7502 16.4706 13.3331 16.4706H11.9998Z" fill="#2B2433"/>
</svg>
