<svg width="284" height="59" viewBox="0 0 284 59" fill="none" xmlns="http://www.w3.org/2000/svg">
<path d="M44.2254 39.4719C45.7534 39.5808 47.2257 40.0902 48.4943 40.9487C49.7629 41.8073 50.7831 42.9847 51.4522 44.3626C53.8815 48.4228 57.3158 49.3189 60.196 49.5252L61.0401 49.5857L63.2826 49.618L63.9004 49.6623C60.7071 55.0486 54.1184 57.4892 44.1337 56.9927L42.4949 56.8753C40.1917 56.6465 38.0736 55.5122 36.6068 53.7218C35.1399 51.9314 34.4443 49.6316 34.6731 47.3283C34.9018 45.0251 36.0362 42.907 37.8266 41.4402C39.617 39.9733 41.9168 39.2777 44.22 39.5065L44.2254 39.4719Z" fill="#8943E6"/>
<path d="M26.8217 38.2252C25.2939 38.1153 23.764 38.4096 22.386 39.0786C21.008 39.7475 19.8304 40.7675 18.9717 42.036C15.9885 45.7086 12.4616 46.1061 9.58136 45.8998L8.73731 45.8393L6.51305 45.5517L5.89524 45.5075C8.28831 51.2939 14.4619 54.6486 24.4154 55.5802L26.0542 55.6976C28.3665 55.7994 30.6246 54.9785 32.3317 53.4154C34.0388 51.8524 35.055 49.6752 35.1569 47.3629C35.2587 45.0505 34.4378 42.7924 32.8747 41.0853C31.3117 39.3783 29.1345 38.362 26.8221 38.2602L26.8217 38.2252Z" fill="#8943E6"/>
<path fill-rule="evenodd" clip-rule="evenodd" d="M28.3669 22.3458C28.3669 29.1296 22.8665 34.629 16.0815 34.629C9.29654 34.629 3.7962 29.1296 3.7962 22.3458C3.7962 15.562 9.29654 10.0626 16.0815 10.0626C20.4158 10.0626 24.2258 12.3067 26.4127 15.6961C26.5448 15.9009 26.671 16.1098 26.791 16.3227C32.7382 13.9341 36.2959 14.0179 42.2499 16.3391C42.3348 16.127 42.4255 15.9178 42.5217 15.7117C42.5272 15.6998 42.5328 15.688 42.5384 15.6761C44.502 11.5049 48.7439 8.61749 53.6602 8.61749C60.4452 8.61749 65.9456 14.1169 65.9456 20.9007C65.9456 27.6846 60.4452 33.1839 53.6602 33.1839C46.8752 33.1839 41.3749 27.6846 41.3749 20.9007C41.3749 19.9306 41.4874 18.9868 41.7 18.0816C35.1535 15.1602 32.4058 16.1078 27.6064 18.0816C28.0982 19.4099 28.3669 20.8465 28.3669 22.3458ZM16.0815 33.1839C22.0683 33.1839 26.9215 28.3315 26.9215 22.3458C26.9215 16.3601 22.0683 11.5077 16.0815 11.5077C10.0948 11.5077 5.24154 16.3601 5.24154 22.3458C5.24154 28.3315 10.0948 33.1839 16.0815 33.1839ZM53.6602 31.7389C59.647 31.7389 64.5002 26.8865 64.5002 20.9007C64.5002 14.915 59.647 10.0626 53.6602 10.0626C47.6735 10.0626 42.8202 14.915 42.8202 20.9007C42.8202 26.8865 47.6735 31.7389 53.6602 31.7389Z" fill="#8943E6"/>
<path d="M51.4922 23.0683C53.8869 23.0683 55.8282 21.1274 55.8282 18.7331C55.8282 16.3388 53.8869 14.3978 51.4922 14.3978C49.0975 14.3978 47.1562 16.3388 47.1562 18.7331C47.1562 21.1274 49.0975 23.0683 51.4922 23.0683Z" fill="#8943E6"/>
<path d="M18.2495 23.777C20.6443 23.777 22.5855 21.836 22.5855 19.4417C22.5855 17.0475 20.6443 15.1065 18.2495 15.1065C15.8548 15.1065 13.9135 17.0475 13.9135 19.4417C13.9135 21.836 15.8548 23.777 18.2495 23.777Z" fill="#8943E6"/>
<path fill-rule="evenodd" clip-rule="evenodd" d="M16.0816 35.0831C23.1173 35.0831 28.821 29.3804 28.821 22.3457C28.7817 20.8619 28.6304 19.9735 28.2082 18.3247C30.7903 17.3134 32.1727 16.8926 34.5204 16.6711C36.4565 16.5622 38.1209 17.02 41.177 18.3473C41.009 19.1726 40.9208 20.0265 40.9208 20.9006C40.9208 27.9353 46.6246 33.638 53.6603 33.638C60.696 33.638 66.3997 27.9353 66.3997 20.9006C66.3997 13.8659 60.696 8.16333 53.6603 8.16333C48.5616 8.16333 44.1633 11.1582 42.1276 15.4826L42.1103 15.5196L42.0023 15.7573C39.1878 14.6895 36.8626 14.1229 34.5204 14.1106C32.1631 14.0982 29.8243 14.6472 26.9862 15.7568C26.9237 15.6535 26.8597 15.5512 26.7943 15.4499C24.5273 11.9363 20.5765 9.60842 16.0816 9.60842C9.04587 9.60842 3.34216 15.311 3.34216 22.3457C3.34216 29.3804 9.04587 35.0831 16.0816 35.0831ZM25.9207 14.989C26.0927 15.2186 26.2568 15.4544 26.4127 15.6961C26.5448 15.9008 26.671 16.1097 26.791 16.3226C32.7383 13.9341 36.2959 14.0178 42.25 16.3391C42.3349 16.127 42.4255 15.9178 42.5217 15.7117L42.5385 15.676C44.502 11.5048 48.7439 8.61742 53.6603 8.61742C60.4453 8.61742 65.9456 14.1168 65.9456 20.9006C65.9456 27.6845 60.4453 33.1839 53.6603 33.1839C46.8753 33.1839 41.3749 27.6845 41.3749 20.9006C41.3749 19.9306 41.4874 18.9867 41.7001 18.0815C35.1536 15.1601 32.4059 16.1078 27.6064 18.0815C28.0983 19.4098 28.3669 20.8464 28.3669 22.3457C28.3669 29.1296 22.8666 34.629 16.0816 34.629C9.29659 34.629 3.79626 29.1296 3.79626 22.3457C3.79626 15.5619 9.29659 10.0625 16.0816 10.0625C20.1068 10.0625 23.6799 11.998 25.9207 14.989Z" fill="#8943E6"/>
<path fill-rule="evenodd" clip-rule="evenodd" d="M64.5003 20.9006C64.5003 26.8864 59.647 31.7388 53.6603 31.7388C47.6735 31.7388 42.8203 26.8864 42.8203 20.9006C42.8203 14.9149 47.6735 10.0625 53.6603 10.0625C59.647 10.0625 64.5003 14.9149 64.5003 20.9006ZM53.6603 31.2847C59.3963 31.2847 64.0462 26.6355 64.0462 20.9006C64.0462 15.1658 59.3963 10.5166 53.6603 10.5166C47.9242 10.5166 43.2744 15.1658 43.2744 20.9006C43.2744 26.6355 47.9242 31.2847 53.6603 31.2847Z" fill="#8943E6"/>
<path fill-rule="evenodd" clip-rule="evenodd" d="M26.9216 22.3457C26.9216 28.3315 22.0684 33.1839 16.0816 33.1839C10.0948 33.1839 5.24159 28.3315 5.24159 22.3457C5.24159 16.36 10.0948 11.5076 16.0816 11.5076C22.0684 11.5076 26.9216 16.36 26.9216 22.3457ZM16.0816 32.7298C21.8176 32.7298 26.4675 28.0806 26.4675 22.3457C26.4675 16.6109 21.8176 11.9617 16.0816 11.9617C10.3455 11.9617 5.69568 16.6109 5.69568 22.3457C5.69568 28.0806 10.3455 32.7298 16.0816 32.7298Z" fill="#8943E6"/>
<path fill-rule="evenodd" clip-rule="evenodd" d="M18.2496 24.231C20.895 24.231 23.0397 22.0868 23.0397 19.4417C23.0397 16.7965 20.895 14.6523 18.2496 14.6523C15.6042 14.6523 13.4595 16.7965 13.4595 19.4417C13.4595 22.0868 15.6042 24.231 18.2496 24.231ZM22.5856 19.4417C22.5856 21.836 20.6443 23.7769 18.2496 23.7769C15.8549 23.7769 13.9136 21.836 13.9136 19.4417C13.9136 17.0474 15.8549 15.1064 18.2496 15.1064C20.6443 15.1064 22.5856 17.0474 22.5856 19.4417Z" fill="#8943E6"/>
<path fill-rule="evenodd" clip-rule="evenodd" d="M51.4923 23.5224C54.1377 23.5224 56.2824 21.3782 56.2824 18.733C56.2824 16.0879 54.1377 13.9437 51.4923 13.9437C48.8469 13.9437 46.7022 16.0879 46.7022 18.733C46.7022 21.3782 48.8469 23.5224 51.4923 23.5224ZM51.4923 23.0683C53.887 23.0683 55.8283 21.1273 55.8283 18.733C55.8283 16.3387 53.887 14.3978 51.4923 14.3978C49.0976 14.3978 47.1563 16.3387 47.1563 18.733C47.1563 21.1273 49.0976 23.0683 51.4923 23.0683Z" fill="#8943E6"/>
<path d="M43.6429 1.38475C43.6429 1.0808 43.8823 0.830788 44.186 0.817662L63.0875 0.00059134C63.2478 -0.00633482 63.4034 0.054842 63.5161 0.168997L69.7489 6.48548C70.187 6.92942 69.6925 7.65247 69.1199 7.40529L64.0606 5.22142C63.9602 5.17808 63.8494 5.16467 63.7416 5.18279L44.3046 8.44952C43.9584 8.5077 43.6429 8.24082 43.6429 7.88975V1.38475Z" fill="#8943E6"/>
<path d="M26.2738 1.38475C26.2738 1.0808 26.0344 0.830788 25.7307 0.817662L6.82914 0.00059134C6.66892 -0.00633482 6.51324 0.054842 6.4006 0.168997L0.167782 6.48548C-0.270281 6.92942 0.22415 7.65247 0.796766 7.40529L5.85608 5.22142C5.95648 5.17808 6.06726 5.16467 6.1751 5.18279L25.6121 8.44952C25.9583 8.5077 26.2738 8.24082 26.2738 7.88975V1.38475Z" fill="#8943E6"/>
<path d="M275.199 28.4898C274.1 28.4898 272.994 28.8209 271.881 29.4831C271.272 29.8407 270.703 30.0195 270.173 30.0195C269.564 30.0195 269.074 29.7877 268.703 29.3242C268.319 28.8606 268.127 28.3441 268.127 27.7746C268.127 26.8077 268.769 25.9866 270.054 25.3111C271.563 24.5164 273.305 24.1191 275.279 24.1191C278.166 24.1191 280.338 24.735 281.795 25.9667C283.265 27.1852 284 29.0063 284 31.43V41.701C284 42.3765 283.973 42.8599 283.92 43.1513C283.881 43.4427 283.781 43.734 283.622 44.0254C283.437 44.383 283.139 44.6744 282.728 44.8996C282.331 45.1115 281.887 45.2174 281.397 45.2174C280.722 45.2174 280.172 45.0188 279.748 44.6214C279.404 44.3036 279.152 43.8466 278.994 43.2506C278.225 44.0056 277.464 44.5353 276.709 44.84C275.967 45.1446 275.02 45.2969 273.868 45.2969C271.563 45.2969 269.802 44.6744 268.583 43.4294C267.444 42.2904 266.875 40.7408 266.875 38.7806C266.875 37.0324 267.484 35.5954 268.703 34.4696C269.921 33.3438 271.696 32.7809 274.027 32.7809H278.835V31.7479C278.835 30.6221 278.537 29.801 277.941 29.2844C277.345 28.7546 276.431 28.4898 275.199 28.4898ZM278.835 37.4297V36.3172H274.901C272.861 36.3172 271.842 37.1119 271.842 38.7012C271.842 39.4429 272.1 40.019 272.616 40.4296C273.146 40.8402 273.934 41.0454 274.981 41.0454C275.682 41.0454 276.265 40.9792 276.729 40.8468C277.192 40.7143 277.629 40.4494 278.04 40.0521C278.345 39.774 278.55 39.4429 278.656 39.0588C278.775 38.6614 278.835 38.1184 278.835 37.4297Z" fill="#8943E6"/>
<path d="M262.628 41.6813C262.628 42.7673 262.515 43.5355 262.29 43.9858C261.88 44.807 261.131 45.2175 260.045 45.2175C258.959 45.2175 258.211 44.807 257.8 43.9858C257.575 43.5355 257.463 42.7673 257.463 41.6813V28.3309C257.463 27.2449 257.575 26.4767 257.8 26.0264C258.211 25.2053 258.959 24.7947 260.045 24.7947C261.131 24.7947 261.88 25.2053 262.29 26.0264C262.515 26.4767 262.628 27.2449 262.628 28.3309V41.6813ZM257.939 20.6426C257.357 20.0598 257.065 19.3579 257.065 18.5367C257.065 17.7156 257.357 17.0136 257.939 16.4309C258.522 15.8481 259.224 15.5567 260.045 15.5567C260.866 15.5567 261.568 15.8481 262.151 16.4309C262.734 17.0136 263.025 17.7156 263.025 18.5367C263.025 19.3579 262.734 20.0598 262.151 20.6426C261.568 21.2253 260.866 21.5167 260.045 21.5167C259.224 21.5167 258.522 21.2253 257.939 20.6426Z" fill="#8943E6"/>
<path d="M246.598 24.1191C248.147 24.1191 249.498 24.4568 250.651 25.1323C252.319 25.9799 253.154 26.9534 253.154 28.0527C253.154 28.6619 252.909 29.2248 252.419 29.7414C251.995 30.1917 251.465 30.4168 250.829 30.4168C250.286 30.4168 249.69 30.1784 249.041 29.7016C248.207 29.1056 247.379 28.8076 246.558 28.8076C245.34 28.8341 244.366 29.2844 243.638 30.1585C242.869 31.1121 242.485 32.622 242.485 34.6881C242.485 36.7807 242.869 38.3038 243.638 39.2574C244.379 40.1581 245.353 40.6084 246.558 40.6084C247.419 40.6084 248.247 40.317 249.041 39.7342C249.717 39.231 250.313 38.9793 250.829 38.9793C251.452 38.9793 251.982 39.2111 252.419 39.6746C252.909 40.1647 253.154 40.7276 253.154 41.3633C253.154 42.4096 252.319 43.3897 250.651 44.3036C249.432 44.9658 248.068 45.2969 246.558 45.2969C245.671 45.2969 244.816 45.2042 243.995 45.0188C243.187 44.8201 242.366 44.4691 241.532 43.9658C240.697 43.4625 239.976 42.8268 239.366 42.0586C238.77 41.2772 238.28 40.2574 237.896 38.9992C237.512 37.741 237.32 36.3039 237.32 34.6881C237.32 33.0723 237.512 31.6353 237.896 30.3771C238.28 29.1189 238.777 28.1057 239.386 27.3375C239.995 26.5693 240.717 25.9402 241.552 25.4502C242.386 24.9469 243.214 24.6025 244.035 24.4171C244.856 24.2184 245.71 24.1191 246.598 24.1191Z" fill="#8943E6"/>
<path d="M220.583 26.3044C221.219 25.6025 221.993 25.0661 222.907 24.6952C223.834 24.3112 224.788 24.1191 225.768 24.1191C227.808 24.1191 229.437 24.7284 230.655 25.9468C231.437 26.7283 231.98 27.5958 232.284 28.5494C232.602 29.503 232.761 30.5956 232.761 31.8273V41.6812C232.761 42.7672 232.648 43.5354 232.423 43.9857C232.013 44.8068 231.264 45.2174 230.178 45.2174C229.092 45.2174 228.344 44.8068 227.933 43.9857C227.708 43.5354 227.596 42.7672 227.596 41.6812V32.5425C227.596 31.2578 227.258 30.3175 226.583 29.7215C225.92 29.1122 225.119 28.8076 224.179 28.8076C223.238 28.8076 222.424 29.1122 221.735 29.7215C221.06 30.3175 220.722 31.2578 220.722 32.5425V41.6812C220.722 42.7672 220.609 43.5354 220.384 43.9857C219.974 44.8068 219.225 45.2174 218.139 45.2174C217.053 45.2174 216.305 44.8068 215.894 43.9857C215.669 43.5354 215.557 42.7672 215.557 41.6812V27.715C215.557 27.0395 215.576 26.5561 215.616 26.2647C215.669 25.9733 215.775 25.6819 215.934 25.3906C216.119 25.033 216.411 24.7482 216.808 24.5363C217.219 24.3112 217.669 24.1986 218.159 24.1986C218.835 24.1986 219.384 24.3972 219.808 24.7946C220.166 25.1257 220.424 25.629 220.583 26.3044Z" fill="#8943E6"/>
<path d="M205.786 32.7809C205.746 31.8803 205.594 31.132 205.329 30.536C205.038 29.887 204.594 29.3705 203.998 28.9864C203.402 28.6023 202.687 28.4103 201.853 28.4103C201.018 28.4103 200.303 28.6023 199.707 28.9864C199.111 29.3705 198.674 29.887 198.396 30.536C198.104 31.1717 197.952 31.92 197.939 32.7809H205.786ZM207.892 36.3172H197.939C197.939 37.6946 198.336 38.8071 199.131 39.6547C199.925 40.5024 201.051 40.9262 202.508 40.9262C203.899 40.9262 205.091 40.5554 206.084 39.8137C206.813 39.2971 207.455 39.0389 208.011 39.0389C208.528 39.0389 209.005 39.2574 209.442 39.6945C209.879 40.1183 210.097 40.6216 210.097 41.2043C210.097 42.0785 209.422 42.9658 208.071 43.8665C206.654 44.8201 204.773 45.2968 202.429 45.2968C201.396 45.2968 200.435 45.2041 199.548 45.0187C198.661 44.82 197.793 44.4757 196.946 43.9857C196.098 43.4824 195.383 42.84 194.8 42.0586C194.217 41.2772 193.747 40.264 193.389 39.019C193.032 37.7608 192.853 36.3238 192.853 34.708C192.853 31.3836 193.668 28.7877 195.297 26.9203C196.939 25.0528 199.124 24.1191 201.853 24.1191C204.568 24.1191 206.72 24.9866 208.309 26.7216C209.912 28.4434 210.759 30.6552 210.852 33.357C210.879 34.4033 210.647 35.1715 210.157 35.6616C209.958 35.8602 209.713 36.0125 209.422 36.1185C209.144 36.2244 208.905 36.284 208.707 36.2973C208.508 36.3105 208.236 36.3172 207.892 36.3172ZM204.395 20.6424L201.972 18.2386L199.548 20.6424C198.992 21.1987 198.508 21.5497 198.098 21.6953C197.409 21.9205 196.767 21.7351 196.171 21.1391C195.588 20.5563 195.403 19.914 195.614 19.212C195.76 18.8014 196.111 18.318 196.667 17.7618L199.727 14.7023C199.965 14.4639 200.164 14.2785 200.323 14.146C200.495 14.0004 200.733 13.8613 201.038 13.7288C201.343 13.5832 201.654 13.5103 201.972 13.5103C202.29 13.5103 202.601 13.5832 202.905 13.7288C203.21 13.8613 203.442 14.0004 203.601 14.146C203.773 14.2785 203.978 14.4639 204.217 14.7023L207.276 17.7618C207.832 18.318 208.183 18.8014 208.329 19.212C208.541 19.914 208.356 20.5563 207.773 21.1391C207.177 21.7351 206.534 21.9205 205.846 21.6953C205.435 21.5497 204.952 21.1987 204.395 20.6424Z" fill="#8943E6"/>
<path d="M188.089 41.6813C188.089 42.7673 187.977 43.5355 187.752 43.9858C187.341 44.807 186.593 45.2175 185.507 45.2175C184.421 45.2175 183.672 44.807 183.262 43.9858C183.037 43.5355 182.924 42.7673 182.924 41.6813V28.3309C182.924 27.2449 183.037 26.4767 183.262 26.0264C183.672 25.2053 184.421 24.7947 185.507 24.7947C186.593 24.7947 187.341 25.2053 187.752 26.0264C187.977 26.4767 188.089 27.2449 188.089 28.3309V41.6813ZM183.401 20.6426C182.818 20.0598 182.527 19.3579 182.527 18.5367C182.527 17.7156 182.818 17.0136 183.401 16.4309C183.984 15.8481 184.686 15.5567 185.507 15.5567C186.328 15.5567 187.03 15.8481 187.613 16.4309C188.195 17.0136 188.487 17.7156 188.487 18.5367C188.487 19.3579 188.195 20.0598 187.613 20.6426C187.03 21.2253 186.328 21.5167 185.507 21.5167C184.686 21.5167 183.984 21.2253 183.401 20.6426Z" fill="#8943E6"/>
<path d="M168.175 40.3699C170.082 40.3699 171.473 39.3964 172.347 37.4495C172.784 36.5224 173.241 35.8668 173.717 35.4827C174.128 35.1648 174.658 35.0059 175.307 35.0059C176.088 35.0059 176.731 35.2575 177.234 35.7608C177.724 36.2509 177.969 36.9528 177.969 37.8667C177.969 38.5421 177.77 39.3236 177.373 40.2109C176.989 41.0983 176.38 41.946 175.545 42.7539C174.645 43.628 173.625 44.2703 172.486 44.6809C171.347 45.0915 169.949 45.2968 168.294 45.2968C165.234 45.2968 162.725 44.3035 160.764 42.3168C160.208 41.7605 159.745 41.1645 159.374 40.5288C159.016 39.8931 158.731 39.2838 158.52 38.7011C158.321 38.1051 158.169 37.3435 158.063 36.4164C157.97 35.4893 157.91 34.6682 157.884 33.953C157.871 33.2245 157.864 32.2113 157.864 30.9134C157.864 29.6154 157.871 28.6089 157.884 27.8937C157.91 27.1652 157.97 26.3374 158.063 25.4103C158.169 24.4832 158.321 23.7283 158.52 23.1455C158.731 22.5495 159.016 21.9337 159.374 21.2979C159.745 20.6622 160.208 20.0662 160.764 19.51C162.725 17.5233 165.234 16.53 168.294 16.53C169.949 16.53 171.347 16.7353 172.486 17.1458C173.625 17.5564 174.645 18.1988 175.545 19.0729C176.38 19.8808 176.989 20.7284 177.373 21.6158C177.77 22.5032 177.969 23.2846 177.969 23.9601C177.969 24.8739 177.724 25.5759 177.234 26.0659C176.731 26.5692 176.088 26.8209 175.307 26.8209C174.658 26.8209 174.128 26.6619 173.717 26.3441C173.241 25.96 172.784 25.3044 172.347 24.3773C171.473 22.4303 170.082 21.4569 168.175 21.4569C166.837 21.4569 165.718 21.9602 164.817 22.9667C164.235 23.629 163.857 24.4766 163.685 25.5097C163.513 26.5427 163.427 28.344 163.427 30.9134C163.427 33.4828 163.513 35.284 163.685 36.3171C163.857 37.3501 164.235 38.1978 164.817 38.86C165.718 39.8666 166.837 40.3699 168.175 40.3699Z" fill="#8943E6"/>
<path d="M143.1 39.2773C143.789 39.9528 144.133 40.7673 144.133 41.7209C144.133 42.6745 143.789 43.489 143.1 44.1645C142.411 44.8399 141.59 45.1777 140.637 45.1777C139.683 45.1777 138.868 44.8399 138.193 44.1645C137.517 43.489 137.18 42.6745 137.18 41.7209C137.18 40.7673 137.517 39.9528 138.193 39.2773C138.868 38.6018 139.683 38.2641 140.637 38.2641C141.59 38.2641 142.411 38.6018 143.1 39.2773Z" fill="#8943E6"/>
<path d="M117.838 33.7941V41.4825C117.838 42.1579 117.811 42.648 117.758 42.9526C117.719 43.2572 117.619 43.5751 117.46 43.9062C117.248 44.3035 116.924 44.6214 116.487 44.8598C116.063 45.0982 115.586 45.2174 115.056 45.2174C114.527 45.2174 114.043 45.0982 113.606 44.8598C113.182 44.6214 112.864 44.3035 112.653 43.9062C112.494 43.5751 112.388 43.2572 112.335 42.9526C112.295 42.648 112.275 42.1579 112.275 41.4825V20.1458C112.275 19.7749 112.282 19.4769 112.295 19.2518C112.321 19.0266 112.394 18.7485 112.514 18.4174C112.633 18.073 112.812 17.7816 113.05 17.5432C113.288 17.3048 113.573 17.126 113.904 17.0068C114.249 16.8876 114.533 16.8214 114.758 16.8082C114.984 16.7817 115.282 16.7684 115.652 16.7684H123.381C124.784 16.7684 126.069 17.0002 127.235 17.4638C128.413 17.9141 129.387 18.5366 130.155 19.3312C130.923 20.1126 131.519 21.0265 131.943 22.0728C132.367 23.1191 132.579 24.2316 132.579 25.4104C132.579 27.1057 132.128 28.6155 131.228 29.94C130.327 31.2512 129.069 32.2313 127.453 32.8802L131.685 40.2507C132.254 41.2441 132.552 41.9857 132.579 42.4758C132.605 42.9261 132.493 43.3632 132.241 43.787C132.003 44.1976 131.658 44.5287 131.208 44.7803C130.705 45.0717 130.215 45.2174 129.738 45.2174C129.274 45.2174 128.857 45.1048 128.486 44.8796C128.129 44.6412 127.857 44.3962 127.672 44.1446C127.5 43.8929 127.261 43.4956 126.957 42.9526L121.712 33.7941H117.838ZM117.838 29.1453H123.083C124.288 29.1453 125.248 28.8076 125.963 28.1321C126.692 27.4434 127.056 26.5428 127.056 25.4303C127.056 24.3177 126.692 23.4171 125.963 22.7284C125.248 22.0397 124.288 21.6953 123.083 21.6953H117.838V29.1453Z" fill="#8943E6"/>
<path d="M98.2782 33.5159L94.9009 33.0192C92.5036 32.6616 90.6759 31.8736 89.4177 30.6551C88.0668 29.3439 87.3913 27.4963 87.3913 25.1123C87.3913 22.5562 88.2787 20.49 90.0534 18.914C91.8282 17.3246 94.2254 16.53 97.2451 16.53C99.5364 16.53 101.669 16.9869 103.642 17.9008C105.152 18.6027 105.907 19.5232 105.907 20.6622C105.907 21.2715 105.695 21.841 105.271 22.3707C104.834 22.874 104.285 23.1257 103.622 23.1257C103.066 23.1257 102.377 22.9138 101.556 22.4899C100.152 21.7483 98.6623 21.3774 97.0862 21.3774C95.6955 21.3774 94.6228 21.7085 93.8678 22.3707C93.1129 23.0197 92.7354 23.8276 92.7354 24.7945C92.7354 25.7348 93.0069 26.4566 93.55 26.9599C94.1724 27.5162 95.0466 27.8804 96.1723 28.0526L99.4901 28.5294C101.94 28.887 103.748 29.622 104.914 30.7346C106.371 32.0987 107.099 34.092 107.099 36.7144C107.099 38.4892 106.629 40.0321 105.688 41.3433C104.761 42.6545 103.51 43.6412 101.934 44.3035C100.371 44.9657 98.5894 45.2968 96.5895 45.2968C95.0797 45.2968 93.8082 45.1908 92.7752 44.9789C91.7421 44.7538 90.6693 44.3763 89.5568 43.8465C88.5767 43.383 87.8615 42.9194 87.4112 42.4559C86.9609 41.9791 86.7357 41.3632 86.7357 40.6083C86.7357 39.9063 86.9874 39.3037 87.4906 38.8004C87.9012 38.3898 88.4178 38.1845 89.0402 38.1845C89.5833 38.1845 90.3316 38.4362 91.2852 38.9395C92.3182 39.4825 93.2122 39.8666 93.9672 40.0917C94.7353 40.3036 95.6293 40.4096 96.6491 40.4096C98.265 40.4096 99.5033 40.0984 100.364 39.4759C101.238 38.8534 101.675 37.9793 101.675 36.8535C101.675 35.8337 101.391 35.0456 100.821 34.4894C100.331 34.0258 99.4834 33.7013 98.2782 33.5159Z" fill="#8943E6"/>
</svg>
