<svg width="28" height="28" viewBox="0 0 28 28" fill="none" xmlns="http://www.w3.org/2000/svg">
<path fill-rule="evenodd" clip-rule="evenodd" d="M15.08 25.4737C15.0802 26.111 14.8395 26.7249 14.4061 27.1923C13.9727 27.6596 13.3787 27.9459 12.7431 27.9937L12.5537 28H10.0274C9.39 28.0002 8.77612 27.7595 8.30877 27.3261C7.84143 26.8927 7.55516 26.2987 7.50736 25.6632L7.50104 25.4737H15.08ZM11.2905 4C13.5831 3.99996 15.7861 4.89039 17.4348 6.48346C19.0835 8.07653 20.049 10.2477 20.1276 12.5389L20.1326 12.8421V17.5966L22.4341 22.1996C22.5345 22.4004 22.5848 22.6226 22.5806 22.8471C22.5764 23.0716 22.5178 23.2918 22.4099 23.4887C22.302 23.6857 22.148 23.8535 21.961 23.9779C21.7741 24.1023 21.5597 24.1795 21.3364 24.2029L21.1911 24.2105H1.38988C1.16525 24.2106 0.943947 24.1562 0.744942 24.052C0.545937 23.9478 0.375163 23.7969 0.247253 23.6122C0.119344 23.4276 0.0381126 23.2147 0.0105213 22.9917C-0.01707 22.7688 0.00980106 22.5425 0.0888317 22.3322L0.146937 22.1996L2.44841 17.5966V12.8421C2.44841 10.497 3.37999 8.24801 5.0382 6.58979C6.69642 4.93158 8.94544 4 11.2905 4ZM11.2905 6.52632C9.66298 6.52641 8.09831 7.15479 6.9228 8.28041C5.74728 9.40604 5.05168 10.942 4.98104 12.568L4.97473 12.8421V17.5966C4.97474 17.9099 4.91649 18.2204 4.80294 18.5124L4.7082 18.7272L3.23031 21.6842H19.352L17.8741 18.7259C17.7339 18.4458 17.6469 18.1421 17.6177 17.8303L17.6063 17.5966V12.8421C17.6063 11.1671 16.9409 9.56061 15.7565 8.37617C14.572 7.19173 12.9656 6.52632 11.2905 6.52632Z" fill="black"/>
<circle cx="20.5" cy="7.5" r="7.5" fill="#8943E6"/>
<path d="M18.75 7.14C18.0833 6.79333 17.75 6.25667 17.75 5.53C17.75 5.17 17.84 4.84333 18.02 4.55C18.2067 4.25 18.4833 4.01333 18.85 3.84C19.2233 3.66 19.6767 3.57 20.21 3.57C20.7433 3.57 21.1933 3.66 21.56 3.84C21.9333 4.01333 22.21 4.25 22.39 4.55C22.5767 4.84333 22.67 5.17 22.67 5.53C22.67 5.89667 22.58 6.22 22.4 6.5C22.22 6.77333 21.98 6.98667 21.68 7.14C22.0467 7.3 22.3333 7.53333 22.54 7.84C22.7467 8.14667 22.85 8.51 22.85 8.93C22.85 9.38333 22.7333 9.78 22.5 10.12C22.2733 10.4533 21.96 10.71 21.56 10.89C21.16 11.07 20.71 11.16 20.21 11.16C19.71 11.16 19.26 11.07 18.86 10.89C18.4667 10.71 18.1533 10.4533 17.92 10.12C17.6933 9.78 17.58 9.38333 17.58 8.93C17.58 8.51 17.6833 8.14667 17.89 7.84C18.0967 7.52667 18.3833 7.29333 18.75 7.14ZM21.31 5.73C21.31 5.40333 21.21 5.15 21.01 4.97C20.8167 4.79 20.55 4.7 20.21 4.7C19.8767 4.7 19.61 4.79 19.41 4.97C19.2167 5.15 19.12 5.40667 19.12 5.74C19.12 6.04 19.22 6.28 19.42 6.46C19.6267 6.64 19.89 6.73 20.21 6.73C20.53 6.73 20.7933 6.64 21 6.46C21.2067 6.27333 21.31 6.03 21.31 5.73ZM20.21 7.75C19.83 7.75 19.52 7.84667 19.28 8.04C19.0467 8.23333 18.93 8.51 18.93 8.87C18.93 9.20333 19.0433 9.47667 19.27 9.69C19.5033 9.89667 19.8167 10 20.21 10C20.6033 10 20.9133 9.89333 21.14 9.68C21.3667 9.46667 21.48 9.19667 21.48 8.87C21.48 8.51667 21.3633 8.24333 21.13 8.05C20.8967 7.85 20.59 7.75 20.21 7.75Z" fill="white"/>
</svg>
