<svg width="302" height="218" viewBox="0 0 302 218" fill="none" xmlns="http://www.w3.org/2000/svg">
<circle cx="157" cy="101" r="91" fill="#8943E6"/>
<path d="M276.74 216.118C252.693 217.648 206.153 197.127 185.889 186.675L202.936 173.909C207.19 175.284 216.514 178.272 219.785 179.228C253.746 188.43 249.263 170.229 242.776 159.977L226.601 137.625C227.925 125.96 231.087 102.651 233.152 102.732C286.52 151.887 295.555 184.812 297.85 192.14C297.549 212.806 284.543 214.876 276.74 216.118Z" fill="#8943E6"/>
<path d="M19.7817 0.214919C43.2993 -2.15808 89.7262 15.7053 110 24.9337L93.781 37.7875C89.5572 36.6339 80.2989 34.1291 77.0551 33.3381C43.4006 25.8236 48.5028 43.0608 55.2608 52.6187L71.9866 73.3825C71.1419 84.5883 68.9456 107 66.9182 107C12.6858 62.0118 2.54898 30.8662 0.0147529 23.9449C-0.492092 4.16993 12.179 1.69804 19.7817 0.214919Z" fill="#8943E6"/>
<path d="M141.155 169.043L177.995 190.105L187.569 187.573L143.161 163.004L103.791 136.414L65.927 106.3L66.9511 115.352L100.775 141.449L141.155 169.043Z" fill="#EFE3FF"/>
</svg>
