<svg width="24" height="23" viewBox="0 0 24 23" fill="none" xmlns="http://www.w3.org/2000/svg">
<path d="M6 19.5767C5.66 19.5767 5.3752 19.4615 5.1456 19.2311C4.916 19.0007 4.8008 18.7159 4.8 18.3767V15.9767H19.4C19.9523 15.9767 20.4 15.529 20.4 14.9767V5.17671H22.8C23.14 5.17671 23.4252 5.29191 23.6556 5.52231C23.886 5.75271 24.0008 6.03751 24 6.37671V21.9625C24 22.8534 22.9229 23.2996 22.2929 22.6696L19.2 19.5767H6ZM1.70711 16.6696C1.07714 17.2996 0 16.8534 0 15.9625V1.57671C0 1.23671 0.1152 0.951909 0.3456 0.722309C0.576 0.492709 0.8608 0.377509 1.2 0.376709H16.8C17.14 0.376709 17.4252 0.491909 17.6556 0.722309C17.886 0.952709 18.0008 1.23751 18 1.57671V12.3767C18 12.7167 17.8848 13.0019 17.6544 13.2323C17.424 13.4627 17.1392 13.5775 16.8 13.5767H4.8L1.70711 16.6696ZM14.6 11.1767C15.1523 11.1767 15.6 10.729 15.6 10.1767V3.77671C15.6 3.22442 15.1523 2.77671 14.6 2.77671H3.4C2.84771 2.77671 2.4 3.22442 2.4 3.77671V10.1767C2.4 10.729 2.84772 11.1767 3.4 11.1767H14.6Z" fill="#2B2433"/>
</svg>
