<svg width="22" height="25" viewBox="0 0 22 25" fill="none" xmlns="http://www.w3.org/2000/svg">
<path fill-rule="evenodd" clip-rule="evenodd" d="M14.6667 0.376709C14.8418 0.376709 15.0151 0.411197 15.1769 0.478203C15.3387 0.545209 15.4857 0.643422 15.6095 0.767233C15.7333 0.891045 15.8315 1.03803 15.8985 1.1998C15.9655 1.36157 16 1.53495 16 1.71004C16 1.88514 15.9655 2.05852 15.8985 2.22029C15.8315 2.38205 15.7333 2.52904 15.6095 2.65285C15.4857 2.77666 15.3387 2.87488 15.1769 2.94188C15.0151 3.00889 14.8418 3.04338 14.6667 3.04338H2.66667V20.3767C2.66667 20.7303 2.80714 21.0695 3.05719 21.3195C3.30724 21.5696 3.64638 21.71 4 21.71H14.6667C15.0203 21.71 15.3594 21.8505 15.6095 22.1006C15.8595 22.3506 16 22.6898 16 23.0434C16 23.397 15.8595 23.7361 15.6095 23.9862C15.3594 24.2362 15.0203 24.3767 14.6667 24.3767H4C2.93913 24.3767 1.92172 23.9553 1.17157 23.2051C0.421427 22.455 0 21.4376 0 20.3767V1.71004C0 1.35642 0.140476 1.01728 0.390525 0.767234C0.640573 0.517185 0.979711 0.376709 1.33333 0.376709H14.6667ZM16.9427 7.43404C16.7563 7.24771 16.5188 7.1208 16.2604 7.06933C16.0019 7.01786 15.734 7.04415 15.4904 7.14488C15.2469 7.24561 15.0386 7.41626 14.892 7.63527C14.7454 7.85428 14.667 8.11182 14.6667 8.37538V11.042H6.66667C6.31305 11.042 5.97391 11.1825 5.72386 11.4326C5.47381 11.6826 5.33333 12.0218 5.33333 12.3754C5.33333 12.729 5.47381 13.0681 5.72386 13.3182C5.97391 13.5682 6.31305 13.7087 6.66667 13.7087H14.6667V16.3754C14.6667 16.639 14.745 16.8968 14.8915 17.116C15.038 17.3352 15.2462 17.5061 15.4898 17.6069C15.7334 17.7078 16.0014 17.7342 16.26 17.6828C16.5186 17.6314 16.7562 17.5045 16.9427 17.318L20.9427 13.318C21.1926 13.068 21.333 12.7289 21.333 12.3754C21.333 12.0218 21.1926 11.6827 20.9427 11.4327L16.9427 7.43404Z" fill="#E83030"/>
</svg>
