<svg width="24" height="25" viewBox="0 0 24 25" fill="none" xmlns="http://www.w3.org/2000/svg">
<path d="M16.4359 1.51723C17.1346 0.818333 18.073 0.411351 19.0607 0.378821C20.0485 0.34629 21.0116 0.690646 21.7548 1.34205L21.9416 1.51723L22.859 2.43463C23.5576 3.13329 23.9643 4.0714 23.9968 5.05882C24.0294 6.04624 23.6853 7.00909 23.0342 7.75221L22.859 7.93906L8.31032 22.4891C8.10462 22.6948 7.85543 22.8517 7.58107 22.9484L7.37086 23.0094L1.59133 24.3434C1.38886 24.3901 1.17812 24.3877 0.976804 24.3361C0.775487 24.2846 0.589474 24.1855 0.434381 24.0472C0.279289 23.9089 0.159646 23.7354 0.085498 23.5413C0.0113503 23.3471 -0.0151375 23.1381 0.00825878 22.9316L0.0342108 22.7849L1.36685 17.0041C1.43268 16.7206 1.56127 16.4554 1.74315 16.2282L1.88719 16.066L16.4359 1.51723ZM15.5185 6.10425L3.85306 17.7697L3.02778 21.3485L6.60657 20.5219L18.272 8.85647L15.5185 6.10425ZM20.1068 3.35204C19.8834 3.12862 19.5861 2.99441 19.2708 2.97458C18.9554 2.95475 18.6437 3.05067 18.394 3.24433L18.272 3.35204L17.3533 4.26944L20.1068 7.02166L21.0242 6.10425C21.2477 5.88081 21.3819 5.58353 21.4017 5.26818C21.4215 4.95283 21.3256 4.64108 21.1319 4.39142L21.0242 4.26944L20.1068 3.35204Z" fill="#2B2433"/>
</svg>
