<svg width="28" height="27" viewBox="0 0 28 27" fill="none" xmlns="http://www.w3.org/2000/svg">
<path fill-rule="evenodd" clip-rule="evenodd" d="M8 17.8242C6.74022 17.8242 5.53204 18.3247 4.64124 19.2155C3.75044 20.1063 3.25 21.3145 3.25 22.5742C3.25 23.0384 3.43437 23.4835 3.76256 23.8117C4.09075 24.1399 4.53587 24.3242 5 24.3242H23C23.4641 24.3242 23.9092 24.1399 24.2374 23.8117C24.5656 23.4835 24.75 23.0384 24.75 22.5742C24.75 21.3145 24.2496 20.1063 23.3588 19.2155C22.468 18.3247 21.2598 17.8242 20 17.8242H8ZM2.87348 17.4477C4.23311 16.0881 6.07718 15.3242 8 15.3242H20C21.9228 15.3242 23.7669 16.0881 25.1265 17.4477C26.4862 18.8073 27.25 20.6514 27.25 22.5742C27.25 23.7014 26.8022 24.7824 26.0052 25.5794C25.2082 26.3765 24.1272 26.8242 23 26.8242H5C3.87283 26.8242 2.79183 26.3765 1.9948 25.5794C1.19777 24.7824 0.75 23.7014 0.75 22.5742C0.75 20.6514 1.51384 18.8073 2.87348 17.4477Z" fill="#2B2433"/>
<path fill-rule="evenodd" clip-rule="evenodd" d="M14.0001 2.82422C12.2052 2.82422 10.7501 4.27929 10.7501 6.07422C10.7501 7.86914 12.2052 9.32422 14.0001 9.32422C15.795 9.32422 17.2501 7.86914 17.2501 6.07422C17.2501 4.27929 15.795 2.82422 14.0001 2.82422ZM8.25008 6.07422C8.25008 2.89858 10.8244 0.324219 14.0001 0.324219C17.1757 0.324219 19.7501 2.89858 19.7501 6.07422C19.7501 9.24986 17.1757 11.8242 14.0001 11.8242C10.8244 11.8242 8.25008 9.24986 8.25008 6.07422Z" fill="#2B2433"/>
</svg>
