<svg width="250" height="52" viewBox="0 0 250 52" fill="none" xmlns="http://www.w3.org/2000/svg">
<path d="M38.9309 34.7463C40.2759 34.8422 41.5719 35.2906 42.6886 36.0463C43.8054 36.802 44.7034 37.8385 45.2925 39.0515C47.4309 42.6256 50.4541 43.4144 52.9895 43.596L53.7325 43.6493L55.7065 43.6777L56.2504 43.7167C53.4393 48.4582 47.6394 50.6066 38.8501 50.1695L37.4075 50.0662C35.38 49.8648 33.5155 48.8662 32.2243 47.2902C30.933 45.7141 30.3207 43.6897 30.5221 41.6622C30.7235 39.6346 31.722 37.7702 33.2981 36.4789C34.8741 35.1876 36.8986 34.5753 38.9261 34.7767L38.9309 34.7463Z" fill="#8943E6"/>
<path d="M23.6106 33.6489C22.2656 33.5521 20.9189 33.8112 19.7059 34.4001C18.4928 34.989 17.4562 35.8869 16.7003 37.0035C14.0743 40.2364 10.9696 40.5863 8.43422 40.4047L7.69122 40.3515L5.73324 40.0983L5.1894 40.0594C7.29597 45.1531 12.7305 48.1061 21.4924 48.9262L22.935 49.0295C24.9705 49.1192 26.9582 48.3965 28.4609 47.0206C29.9637 45.6447 30.8582 43.7281 30.9479 41.6926C31.0375 39.6571 30.3149 37.6693 28.9389 36.1666C27.563 34.6639 25.6465 33.7693 23.611 33.6797L23.6106 33.6489Z" fill="#8943E6"/>
<path fill-rule="evenodd" clip-rule="evenodd" d="M24.9707 19.6705C24.9707 25.6422 20.1289 30.4832 14.1562 30.4832C8.18346 30.4832 3.34161 25.6422 3.34161 19.6705C3.34161 13.6988 8.18346 8.85778 14.1562 8.85778C17.9715 8.85778 21.3254 10.8332 23.2505 13.8169C23.3668 13.9971 23.4779 14.181 23.5835 14.3684C28.8188 12.2658 31.9505 12.3396 37.1917 14.3829C37.2665 14.1962 37.3463 14.012 37.431 13.8306C37.4358 13.8202 37.4408 13.8097 37.4457 13.7992C39.1742 10.1274 42.9082 7.58569 47.236 7.58569C53.2087 7.58569 58.0506 12.4267 58.0506 18.3984C58.0506 24.3701 53.2087 29.2111 47.236 29.2111C41.2633 29.2111 36.4214 24.3701 36.4214 18.3984C36.4214 17.5444 36.5205 16.7136 36.7076 15.9167C30.9449 13.3451 28.5261 14.1793 24.3013 15.9167C24.7342 17.086 24.9707 18.3506 24.9707 19.6705ZM14.1562 29.2111C19.4262 29.2111 23.6984 24.9396 23.6984 19.6705C23.6984 14.4013 19.4262 10.1299 14.1562 10.1299C8.88613 10.1299 4.61391 14.4013 4.61391 19.6705C4.61391 24.9396 8.88613 29.2111 14.1562 29.2111ZM47.236 27.939C52.506 27.939 56.7783 23.6675 56.7783 18.3984C56.7783 13.1293 52.506 8.85778 47.236 8.85778C41.966 8.85778 37.6937 13.1293 37.6937 18.3984C37.6937 23.6675 41.966 27.939 47.236 27.939Z" fill="#8943E6"/>
<path d="M45.3275 20.3065C47.4356 20.3065 49.1445 18.5979 49.1445 16.4903C49.1445 14.3826 47.4356 12.674 45.3275 12.674C43.2195 12.674 41.5106 14.3826 41.5106 16.4903C41.5106 18.5979 43.2195 20.3065 45.3275 20.3065Z" fill="#8943E6"/>
<path d="M16.0646 20.9303C18.1726 20.9303 19.8815 19.2217 19.8815 17.1141C19.8815 15.0064 18.1726 13.2978 16.0646 13.2978C13.9566 13.2978 12.2477 15.0064 12.2477 17.1141C12.2477 19.2217 13.9566 20.9303 16.0646 20.9303Z" fill="#8943E6"/>
<path fill-rule="evenodd" clip-rule="evenodd" d="M14.1564 30.883C20.3498 30.883 25.3707 25.8631 25.3707 19.6705C25.336 18.3644 25.2029 17.5823 24.8312 16.1309C27.1042 15.2407 28.3211 14.8703 30.3877 14.6753C32.092 14.5794 33.5572 14.9824 36.2474 16.1508C36.0995 16.8773 36.0219 17.629 36.0219 18.3985C36.0219 24.591 41.0428 29.6109 47.2362 29.6109C53.4296 29.6109 58.4505 24.591 58.4505 18.3985C58.4505 12.2059 53.4296 7.18604 47.2362 7.18604C42.7479 7.18604 38.8762 9.82238 37.0842 13.6291L37.0689 13.6616L36.9739 13.8708C34.4963 12.9309 32.4495 12.4322 30.3877 12.4213C28.3126 12.4104 26.2538 12.8936 23.7555 13.8704C23.7004 13.7795 23.6441 13.6894 23.5866 13.6002C21.591 10.5073 18.1131 8.45812 14.1564 8.45812C7.96295 8.45812 2.94208 13.478 2.94208 19.6705C2.94208 25.8631 7.96295 30.883 14.1564 30.883ZM22.8175 13.1946C22.9689 13.3967 23.1134 13.6042 23.2507 13.817C23.367 13.9972 23.478 14.1811 23.5837 14.3685C28.819 12.2659 31.9507 12.3396 37.1919 14.383C37.2667 14.1963 37.3465 14.0121 37.4311 13.8307L37.4459 13.7993C39.1744 10.1275 42.9084 7.58577 47.2362 7.58577C53.2089 7.58577 58.0507 12.4268 58.0507 18.3985C58.0507 24.3702 53.2089 29.2112 47.2362 29.2112C41.2635 29.2112 36.4216 24.3702 36.4216 18.3985C36.4216 17.5445 36.5207 16.7137 36.7078 15.9168C30.9451 13.3452 28.5263 14.1794 24.3015 15.9168C24.7344 17.0861 24.9709 18.3507 24.9709 19.6705C24.9709 25.6422 20.1291 30.4832 14.1564 30.4832C8.18365 30.4832 3.34181 25.6422 3.34181 19.6705C3.34181 13.6989 8.18365 8.85785 14.1564 8.85785C17.6997 8.85785 20.8451 10.5617 22.8175 13.1946Z" fill="#8943E6"/>
<path fill-rule="evenodd" clip-rule="evenodd" d="M56.7784 18.3985C56.7784 23.6676 52.5062 27.9391 47.2362 27.9391C41.9661 27.9391 37.6939 23.6676 37.6939 18.3985C37.6939 13.1293 41.9661 8.85785 47.2362 8.85785C52.5062 8.85785 56.7784 13.1293 56.7784 18.3985ZM47.2362 27.5394C52.2855 27.5394 56.3787 23.4468 56.3787 18.3985C56.3787 13.3502 52.2855 9.25758 47.2362 9.25758C42.1868 9.25758 38.0937 13.3502 38.0937 18.3985C38.0937 23.4468 42.1868 27.5394 47.2362 27.5394Z" fill="#8943E6"/>
<path fill-rule="evenodd" clip-rule="evenodd" d="M23.6986 19.6705C23.6986 24.9397 19.4264 29.2112 14.1564 29.2112C8.88632 29.2112 4.61411 24.9397 4.61411 19.6705C4.61411 14.4014 8.88632 10.1299 14.1564 10.1299C19.4264 10.1299 23.6986 14.4014 23.6986 19.6705ZM14.1564 28.8114C19.2057 28.8114 23.2989 24.7189 23.2989 19.6705C23.2989 14.6222 19.2057 10.5297 14.1564 10.5297C9.10702 10.5297 5.01384 14.6222 5.01384 19.6705C5.01384 24.7189 9.10702 28.8114 14.1564 28.8114Z" fill="#8943E6"/>
<path fill-rule="evenodd" clip-rule="evenodd" d="M16.0648 21.3301C18.3935 21.3301 20.2815 19.4426 20.2815 17.1142C20.2815 14.7857 18.3935 12.8982 16.0648 12.8982C13.7361 12.8982 11.8482 14.7857 11.8482 17.1142C11.8482 19.4426 13.7361 21.3301 16.0648 21.3301ZM19.8817 17.1142C19.8817 19.2218 18.1728 20.9304 16.0648 20.9304C13.9568 20.9304 12.2479 19.2218 12.2479 17.1142C12.2479 15.0065 13.9568 13.2979 16.0648 13.2979C18.1728 13.2979 19.8817 15.0065 19.8817 17.1142Z" fill="#8943E6"/>
<path fill-rule="evenodd" clip-rule="evenodd" d="M45.3277 20.7063C47.6565 20.7063 49.5444 18.8188 49.5444 16.4903C49.5444 14.1619 47.6565 12.2744 45.3277 12.2744C42.999 12.2744 41.1111 14.1619 41.1111 16.4903C41.1111 18.8188 42.999 20.7063 45.3277 20.7063ZM45.3277 20.3066C47.4357 20.3066 49.1446 18.598 49.1446 16.4903C49.1446 14.3827 47.4357 12.6741 45.3277 12.6741C43.2197 12.6741 41.5108 14.3827 41.5108 16.4903C41.5108 18.598 43.2197 20.3066 45.3277 20.3066Z" fill="#8943E6"/>
<path d="M38.418 1.21892C38.418 0.951352 38.6287 0.731274 38.8961 0.719719L55.5347 0.000466817C55.6758 -0.00563015 55.8128 0.0482227 55.912 0.148712L61.3986 5.70899C61.7842 6.09979 61.349 6.73627 60.8449 6.51869L56.3913 4.59627C56.3029 4.55812 56.2054 4.54631 56.1105 4.56226L39.0004 7.4379C38.6957 7.48912 38.418 7.25418 38.418 6.94515V1.21892Z" fill="#8943E6"/>
<path d="M23.1284 1.21892C23.1284 0.951352 22.9176 0.731274 22.6503 0.719719L6.01158 0.000466817C5.87053 -0.00563015 5.7335 0.0482227 5.63434 0.148712L0.147703 5.70899C-0.237915 6.09979 0.197323 6.73627 0.701387 6.51869L5.15501 4.59627C5.24339 4.55812 5.34091 4.54631 5.43584 4.56226L22.5459 7.4379C22.8506 7.48912 23.1284 7.25418 23.1284 6.94515V1.21892Z" fill="#8943E6"/>
<path d="M242.253 25.0791C241.285 25.0791 240.312 25.3706 239.332 25.9535C238.796 26.2683 238.295 26.4257 237.828 26.4257C237.292 26.4257 236.861 26.2217 236.534 25.8136C236.196 25.4055 236.027 24.9508 236.027 24.4495C236.027 23.5984 236.592 22.8756 237.723 22.281C239.052 21.5815 240.586 21.2317 242.323 21.2317C244.864 21.2317 246.776 21.7738 248.059 22.8581C249.353 23.9307 250 25.5338 250 27.6673V36.7087C250 37.3033 249.977 37.7289 249.93 37.9854C249.895 38.2419 249.808 38.4984 249.668 38.7549C249.504 39.0696 249.242 39.3261 248.881 39.5243C248.531 39.7109 248.14 39.8041 247.709 39.8041C247.114 39.8041 246.631 39.6293 246.258 39.2795C245.954 38.9997 245.733 38.5975 245.593 38.0728C244.917 38.7374 244.246 39.2037 243.582 39.4719C242.929 39.74 242.095 39.8741 241.081 39.8741C239.052 39.8741 237.502 39.3261 236.429 38.2302C235.426 37.2276 234.925 35.8635 234.925 34.138C234.925 32.599 235.461 31.334 236.534 30.343C237.607 29.352 239.169 28.8565 241.221 28.8565H245.453V27.9472C245.453 26.9562 245.191 26.2333 244.666 25.7786C244.141 25.3123 243.337 25.0791 242.253 25.0791ZM245.453 32.9488V31.9694H241.99C240.195 31.9694 239.297 32.669 239.297 34.068C239.297 34.7209 239.525 35.2281 239.979 35.5895C240.446 35.9509 241.139 36.1316 242.06 36.1316C242.678 36.1316 243.191 36.0733 243.599 35.9567C244.007 35.8402 244.392 35.607 244.754 35.2572C245.022 35.0124 245.202 34.7209 245.296 34.3828C245.401 34.033 245.453 33.555 245.453 32.9488Z" fill="#8943E6"/>
<path d="M231.187 36.6913C231.187 37.6473 231.087 38.3235 230.889 38.7199C230.528 39.4428 229.869 39.8042 228.913 39.8042C227.957 39.8042 227.298 39.4428 226.937 38.7199C226.739 38.3235 226.64 37.6473 226.64 36.6913V24.9392C226.64 23.9832 226.739 23.307 226.937 22.9106C227.298 22.1878 227.957 21.8263 228.913 21.8263C229.869 21.8263 230.528 22.1878 230.889 22.9106C231.087 23.307 231.187 23.9832 231.187 24.9392V36.6913ZM227.059 18.1713C226.546 17.6583 226.29 17.0404 226.29 16.3176C226.29 15.5947 226.546 14.9768 227.059 14.4638C227.572 13.9508 228.19 13.6943 228.913 13.6943C229.636 13.6943 230.254 13.9508 230.767 14.4638C231.28 14.9768 231.536 15.5947 231.536 16.3176C231.536 17.0404 231.28 17.6583 230.767 18.1713C230.254 18.6843 229.636 18.9408 228.913 18.9408C228.19 18.9408 227.572 18.6843 227.059 18.1713Z" fill="#8943E6"/>
<path d="M217.075 21.2317C218.44 21.2317 219.629 21.529 220.643 22.1236C222.112 22.8697 222.847 23.7267 222.847 24.6943C222.847 25.2307 222.631 25.7262 222.199 26.1808C221.826 26.5772 221.36 26.7754 220.8 26.7754C220.322 26.7754 219.798 26.5656 219.226 26.1459C218.492 25.6212 217.763 25.3589 217.04 25.3589C215.968 25.3822 215.111 25.7786 214.47 26.5481C213.793 27.3875 213.455 28.7166 213.455 30.5354C213.455 32.3775 213.793 33.7183 214.47 34.5577C215.123 35.3505 215.98 35.7469 217.04 35.7469C217.798 35.7469 218.527 35.4904 219.226 34.9774C219.821 34.5344 220.346 34.3129 220.8 34.3129C221.348 34.3129 221.815 34.5169 222.199 34.9249C222.631 35.3563 222.847 35.8518 222.847 36.4114C222.847 37.3325 222.112 38.1952 220.643 38.9997C219.57 39.5826 218.37 39.8741 217.04 39.8741C216.259 39.8741 215.507 39.7925 214.784 39.6293C214.073 39.4544 213.35 39.1454 212.616 38.7024C211.881 38.2594 211.246 37.6997 210.71 37.0235C210.185 36.3357 209.754 35.4379 209.416 34.3303C209.078 33.2228 208.908 31.9578 208.908 30.5354C208.908 29.113 209.078 27.8481 209.416 26.7405C209.754 25.6329 210.191 24.741 210.727 24.0648C211.264 23.3886 211.899 22.8348 212.633 22.4034C213.368 21.9604 214.097 21.6572 214.819 21.494C215.542 21.3191 216.294 21.2317 217.075 21.2317Z" fill="#8943E6"/>
<path d="M194.175 23.1554C194.735 22.5375 195.417 22.0653 196.221 21.7388C197.037 21.4007 197.877 21.2317 198.739 21.2317C200.535 21.2317 201.969 21.768 203.042 22.8406C203.729 23.5285 204.207 24.2921 204.476 25.1316C204.755 25.971 204.895 26.9328 204.895 28.0171V36.6912C204.895 37.6473 204.796 38.3235 204.598 38.7199C204.237 39.4427 203.578 39.8041 202.622 39.8041C201.666 39.8041 201.007 39.4427 200.646 38.7199C200.447 38.3235 200.348 37.6473 200.348 36.6912V28.6467C200.348 27.5158 200.051 26.688 199.456 26.1634C198.874 25.6271 198.168 25.3589 197.34 25.3589C196.513 25.3589 195.796 25.6271 195.189 26.1634C194.595 26.688 194.297 27.5158 194.297 28.6467V36.6912C194.297 37.6473 194.198 38.3235 194 38.7199C193.639 39.4427 192.98 39.8041 192.024 39.8041C191.068 39.8041 190.409 39.4427 190.048 38.7199C189.85 38.3235 189.751 37.6473 189.751 36.6912V24.3971C189.751 23.8025 189.768 23.3769 189.803 23.1204C189.85 22.8639 189.943 22.6074 190.083 22.3509C190.246 22.0361 190.503 21.7855 190.852 21.5989C191.214 21.4007 191.61 21.3016 192.042 21.3016C192.636 21.3016 193.12 21.4765 193.493 21.8263C193.808 22.1178 194.035 22.5608 194.175 23.1554Z" fill="#8943E6"/>
<path d="M181.15 28.8566C181.115 28.0638 180.981 27.4051 180.748 26.8804C180.491 26.3092 180.101 25.8545 179.576 25.5164C179.051 25.1783 178.422 25.0092 177.687 25.0092C176.953 25.0092 176.323 25.1783 175.798 25.5164C175.274 25.8545 174.889 26.3092 174.644 26.8804C174.388 27.4401 174.254 28.0988 174.242 28.8566H181.15ZM183.004 31.9695H174.242C174.242 33.182 174.592 34.1614 175.291 34.9075C175.991 35.6537 176.982 36.0268 178.264 36.0268C179.488 36.0268 180.538 35.7003 181.412 35.0474C182.053 34.5927 182.619 34.3654 183.108 34.3654C183.563 34.3654 183.983 34.5578 184.368 34.9425C184.752 35.3156 184.945 35.7586 184.945 36.2716C184.945 37.0411 184.35 37.8222 183.161 38.615C181.913 39.4545 180.258 39.8742 178.194 39.8742C177.285 39.8742 176.44 39.7926 175.659 39.6293C174.877 39.4545 174.114 39.1513 173.368 38.7199C172.621 38.2769 171.992 37.7115 171.479 37.0236C170.966 36.3357 170.552 35.4438 170.237 34.3479C169.922 33.2403 169.765 31.9753 169.765 30.553C169.765 27.6266 170.482 25.3415 171.916 23.6976C173.362 22.0537 175.285 21.2318 177.687 21.2318C180.077 21.2318 181.972 21.9954 183.371 23.5227C184.782 25.0384 185.528 26.9854 185.609 29.3638C185.633 30.2848 185.429 30.961 184.997 31.3924C184.822 31.5673 184.607 31.7014 184.35 31.7946C184.105 31.8879 183.895 31.9404 183.721 31.952C183.546 31.9637 183.307 31.9695 183.004 31.9695ZM179.926 18.1713L177.792 16.0553L175.659 18.1713C175.169 18.661 174.743 18.97 174.382 19.0982C173.776 19.2964 173.21 19.1332 172.686 18.6085C172.173 18.0955 172.009 17.5301 172.196 16.9122C172.324 16.5508 172.633 16.1252 173.123 15.6355L175.816 12.9424C176.026 12.7325 176.201 12.5693 176.341 12.4527C176.492 12.3244 176.702 12.202 176.97 12.0854C177.238 11.9572 177.512 11.8931 177.792 11.8931C178.072 11.8931 178.346 11.9572 178.614 12.0854C178.882 12.202 179.086 12.3244 179.226 12.4527C179.378 12.5693 179.558 12.7325 179.768 12.9424L182.461 15.6355C182.951 16.1252 183.26 16.5508 183.388 16.9122C183.575 17.5301 183.412 18.0955 182.899 18.6085C182.374 19.1332 181.809 19.2964 181.202 19.0982C180.841 18.97 180.415 18.661 179.926 18.1713Z" fill="#8943E6"/>
<path d="M165.572 36.6913C165.572 37.6473 165.473 38.3235 165.275 38.7199C164.913 39.4428 164.254 39.8042 163.298 39.8042C162.342 39.8042 161.684 39.4428 161.322 38.7199C161.124 38.3235 161.025 37.6473 161.025 36.6913V24.9392C161.025 23.9832 161.124 23.307 161.322 22.9106C161.684 22.1878 162.342 21.8263 163.298 21.8263C164.254 21.8263 164.913 22.1878 165.275 22.9106C165.473 23.307 165.572 23.9832 165.572 24.9392V36.6913ZM161.445 18.1713C160.932 17.6583 160.675 17.0404 160.675 16.3176C160.675 15.5947 160.932 14.9768 161.445 14.4638C161.958 13.9508 162.576 13.6943 163.298 13.6943C164.021 13.6943 164.639 13.9508 165.152 14.4638C165.665 14.9768 165.922 15.5947 165.922 16.3176C165.922 17.0404 165.665 17.6583 165.152 18.1713C164.639 18.6843 164.021 18.9408 163.298 18.9408C162.576 18.9408 161.958 18.6843 161.445 18.1713Z" fill="#8943E6"/>
<path d="M148.041 35.5369C149.72 35.5369 150.944 34.6799 151.714 32.9661C152.099 32.15 152.501 31.5729 152.92 31.2348C153.282 30.9549 153.748 30.815 154.32 30.815C155.007 30.815 155.573 31.0366 156.016 31.4796C156.447 31.911 156.663 32.5289 156.663 33.3333C156.663 33.9279 156.488 34.6158 156.138 35.3969C155.8 36.1781 155.264 36.9243 154.529 37.6354C153.737 38.4049 152.839 38.9704 151.836 39.3318C150.834 39.6932 149.604 39.8739 148.146 39.8739C145.453 39.8739 143.244 38.9995 141.518 37.2507C141.029 36.761 140.62 36.2364 140.294 35.6768C139.979 35.1171 139.729 34.5808 139.542 34.0678C139.367 33.5432 139.233 32.8728 139.14 32.0567C139.058 31.2406 139.006 30.5177 138.982 29.8882C138.971 29.2469 138.965 28.355 138.965 27.2125C138.965 26.0699 138.971 25.1838 138.982 24.5543C139.006 23.913 139.058 23.1844 139.14 22.3682C139.233 21.5521 139.367 20.8876 139.542 20.3746C139.729 19.8499 139.979 19.3078 140.294 18.7482C140.62 18.1886 141.029 17.6639 141.518 17.1743C143.244 15.4254 145.453 14.551 148.146 14.551C149.604 14.551 150.834 14.7317 151.836 15.0932C152.839 15.4546 153.737 16.02 154.529 16.7895C155.264 17.5007 155.8 18.2469 156.138 19.028C156.488 19.8091 156.663 20.497 156.663 21.0916C156.663 21.8961 156.447 22.514 156.016 22.9454C155.573 23.3884 155.007 23.6099 154.32 23.6099C153.748 23.6099 153.282 23.47 152.92 23.1902C152.501 22.8521 152.099 22.275 151.714 21.4589C150.944 19.745 149.72 18.8881 148.041 18.8881C146.864 18.8881 145.879 19.3311 145.086 20.2172C144.573 20.8001 144.241 21.5463 144.089 22.4557C143.937 23.3651 143.862 24.9507 143.862 27.2125C143.862 29.4743 143.937 31.0599 144.089 31.9693C144.241 32.8787 144.573 33.6248 145.086 34.2078C145.879 35.0938 146.864 35.5369 148.041 35.5369Z" fill="#8943E6"/>
<path d="M125.968 34.575C126.575 35.1696 126.878 35.8866 126.878 36.7261C126.878 37.5655 126.575 38.2825 125.968 38.8771C125.362 39.4717 124.639 39.769 123.8 39.769C122.96 39.769 122.243 39.4717 121.649 38.8771C121.054 38.2825 120.757 37.5655 120.757 36.7261C120.757 35.8866 121.054 35.1696 121.649 34.575C122.243 33.9804 122.96 33.6831 123.8 33.6831C124.639 33.6831 125.362 33.9804 125.968 34.575Z" fill="#8943E6"/>
<path d="M103.73 29.7484V36.5163C103.73 37.1109 103.707 37.5423 103.66 37.8104C103.626 38.0786 103.538 38.3584 103.398 38.6499C103.212 38.9996 102.926 39.2794 102.541 39.4893C102.168 39.6991 101.748 39.8041 101.282 39.8041C100.816 39.8041 100.39 39.6991 100.005 39.4893C99.6324 39.2794 99.3526 38.9996 99.166 38.6499C99.0261 38.3584 98.9328 38.0786 98.8862 37.8104C98.8512 37.5423 98.8337 37.1109 98.8337 36.5163V17.734C98.8337 17.4075 98.8396 17.1452 98.8512 16.947C98.8745 16.7488 98.9387 16.504 99.0436 16.2125C99.1485 15.9094 99.3059 15.6529 99.5158 15.443C99.7256 15.2332 99.9763 15.0758 100.268 14.9708C100.571 14.8659 100.822 14.8076 101.02 14.796C101.218 14.7726 101.48 14.761 101.807 14.761H108.61C109.845 14.761 110.976 14.965 112.002 15.3731C113.04 15.7695 113.897 16.3174 114.573 17.017C115.249 17.7048 115.774 18.5093 116.147 19.4303C116.52 20.3514 116.707 21.3307 116.707 22.3683C116.707 23.8607 116.31 25.1898 115.517 26.3557C114.725 27.5099 113.617 28.3726 112.195 28.9439L115.92 35.432C116.421 36.3064 116.683 36.9593 116.707 37.3907C116.73 37.7871 116.631 38.1718 116.409 38.5449C116.2 38.9063 115.896 39.1978 115.5 39.4193C115.057 39.6758 114.626 39.8041 114.206 39.8041C113.798 39.8041 113.431 39.705 113.104 39.5068C112.789 39.2969 112.55 39.0812 112.387 38.8597C112.236 38.6382 112.026 38.2884 111.758 37.8104L107.141 29.7484H103.73ZM103.73 25.6561H108.347C109.408 25.6561 110.254 25.3588 110.883 24.7642C111.524 24.158 111.845 23.3652 111.845 22.3858C111.845 21.4065 111.524 20.6137 110.883 20.0074C110.254 19.4012 109.408 19.0981 108.347 19.0981H103.73V25.6561Z" fill="#8943E6"/>
<path d="M86.5124 29.5034L83.5395 29.0662C81.4292 28.7514 79.8203 28.0577 78.7127 26.9851C77.5235 25.8309 76.9289 24.2045 76.9289 22.1059C76.9289 19.8558 77.7101 18.037 79.2723 16.6496C80.8346 15.2506 82.9449 14.551 85.6031 14.551C87.62 14.551 89.4971 14.9533 91.2343 15.7577C92.5634 16.3756 93.2279 17.1859 93.2279 18.1886C93.2279 18.7249 93.0414 19.2262 92.6683 19.6926C92.2835 20.1356 91.7997 20.3571 91.2168 20.3571C90.7271 20.3571 90.1208 20.1706 89.398 19.7975C88.1622 19.1446 86.8506 18.8181 85.4632 18.8181C84.239 18.8181 83.2946 19.1096 82.6301 19.6926C81.9655 20.2638 81.6332 20.975 81.6332 21.8261C81.6332 22.6539 81.8722 23.2893 82.3503 23.7323C82.8982 24.222 83.6677 24.5426 84.6587 24.6942L87.5792 25.1139C89.7361 25.4287 91.3275 26.0757 92.3535 27.0551C93.636 28.2559 94.2772 30.0106 94.2772 32.319C94.2772 33.8813 93.8633 35.2396 93.0355 36.3938C92.2194 37.548 91.1177 38.4166 89.7303 38.9995C88.3545 39.5825 86.7864 39.8739 85.0259 39.8739C83.6968 39.8739 82.5776 39.7807 81.6682 39.5941C80.7588 39.3959 79.8145 39.0636 78.8351 38.5973C77.9724 38.1892 77.3428 37.7812 76.9464 37.3731C76.55 36.9534 76.3518 36.4113 76.3518 35.7467C76.3518 35.1288 76.5733 34.5983 77.0164 34.1553C77.3778 33.7939 77.8325 33.6132 78.3804 33.6132C78.8584 33.6132 79.5172 33.8347 80.3566 34.2777C81.266 34.7557 82.053 35.0938 82.7175 35.292C83.3937 35.4786 84.1807 35.5718 85.0784 35.5718C86.5008 35.5718 87.5909 35.2978 88.3487 34.7499C89.1182 34.2019 89.5029 33.4324 89.5029 32.4414C89.5029 31.5437 89.2523 30.85 88.7509 30.3604C88.3196 29.9523 87.5734 29.6667 86.5124 29.5034Z" fill="#8943E6"/>
</svg>
