<svg width="21" height="21" viewBox="0 0 21 21" fill="none" xmlns="http://www.w3.org/2000/svg">
<path d="M10.3003 0C13.0311 0.00288391 15.6492 1.08895 17.5801 3.01989C19.511 4.95083 20.5971 7.56892 20.6 10.2997C20.6 12.3368 19.9959 14.3285 18.8641 16.0224C17.7324 17.7162 16.1237 19.0364 14.2416 19.816C12.3596 20.5955 10.2886 20.7995 8.29057 20.4021C6.29257 20.0047 4.45728 19.0237 3.0168 17.5832C1.57632 16.1427 0.595344 14.3074 0.197916 12.3094C-0.199511 10.3114 0.00446278 8.24044 0.784045 6.35836C1.56363 4.47628 2.8838 2.86764 4.57763 1.73586C6.27146 0.604084 8.26317 0 10.3003 0ZM20.3 10.3C20.3 12.2778 19.7135 14.2112 18.6147 15.8557C17.5159 17.5002 15.9541 18.7819 14.1268 19.5388C12.2996 20.2957 10.2889 20.4937 8.3491 20.1078C6.40929 19.722 4.62746 18.7696 3.22894 17.3711C1.83041 15.9725 0.878004 14.1907 0.492152 12.2509C0.1063 10.3111 0.304333 8.30042 1.06121 6.47316C1.81809 4.6459 3.09981 3.08412 4.7443 1.9853C6.38879 0.88649 8.32219 0.3 10.3 0.3C12.9513 0.3028 15.4932 1.35727 17.368 3.23202C19.2427 5.10678 20.2972 7.64869 20.3 10.3ZM5.7657 17.0861C7.10776 17.9828 8.68558 18.4615 10.2997 18.4615C12.4636 18.4591 14.5382 17.5984 16.0683 16.0683C17.5984 14.5381 18.4591 12.4636 18.4615 10.2997C18.4615 8.68557 17.9828 7.10776 17.0861 5.76569C16.1893 4.42353 14.9146 3.37745 13.4233 2.75972C11.932 2.14199 10.2909 1.98037 8.70777 2.29528C7.12458 2.6102 5.67034 3.38751 4.52892 4.52892C3.38751 5.67033 2.6102 7.12458 2.29529 8.70776C1.98037 10.2909 2.142 11.932 2.75973 13.4233C3.37745 14.9146 4.42354 16.1893 5.7657 17.0861ZM18.7615 10.3C18.7615 8.62646 18.2653 6.99051 17.3355 5.59902C16.4057 4.20753 15.0842 3.12299 13.5381 2.48256C11.9919 1.84212 10.2906 1.67456 8.64924 2.00105C7.00786 2.32754 5.50016 3.13342 4.31679 4.31679C3.13343 5.50016 2.32754 7.00786 2.00105 8.64923C1.67456 10.2906 1.84213 11.9919 2.48256 13.5381C3.123 15.0842 4.20753 16.4057 5.59902 17.3355C6.99052 18.2653 8.62647 18.7615 10.3 18.7615C12.5434 18.759 14.6941 17.8667 16.2804 16.2804C17.8667 14.6941 18.759 12.5434 18.7615 10.3ZM16.7538 10.3C16.7538 10.5836 16.6412 10.8555 16.4407 11.0561C16.2402 11.2566 15.9682 11.3692 15.6846 11.3692H10.3C10.0164 11.3692 9.74446 11.2566 9.54394 11.0561C9.34342 10.8555 9.23077 10.5836 9.23077 10.3V4.91538C9.23077 4.63181 9.34342 4.35984 9.54394 4.15932C9.74446 3.9588 10.0164 3.84615 10.3 3.84615C10.5836 3.84615 10.8555 3.9588 11.0561 4.15932C11.2566 4.35984 11.3692 4.63181 11.3692 4.91538V9.23077H15.6846C15.9682 9.23077 16.2402 9.34342 16.4407 9.54394C16.6412 9.74446 16.7538 10.0164 16.7538 10.3ZM15.6846 9.53077C15.8886 9.53077 16.0843 9.61181 16.2285 9.75607C16.3728 9.90033 16.4538 10.096 16.4538 10.3C16.4538 10.504 16.3728 10.6997 16.2285 10.8439C16.0843 10.9882 15.8886 11.0692 15.6846 11.0692H10.3C10.096 11.0692 9.90033 10.9882 9.75607 10.8439C9.61182 10.6997 9.53077 10.504 9.53077 10.3V4.91538C9.53077 4.71137 9.61182 4.51571 9.75607 4.37146C9.90033 4.2272 10.096 4.14615 10.3 4.14615C10.504 4.14615 10.6997 4.2272 10.8439 4.37146C10.9882 4.51571 11.0692 4.71137 11.0692 4.91538V9.53077H15.6846Z" fill="#2B2433"/>
</svg>
